<svg version="1.1" xmlns="http://www.w3.org/2000/svg" xmlns:xlink="http://www.w3.org/1999/xlink" width="146.05406" height="146.05406" viewBox="0,0,146.05406,146.05406"><g transform="translate(-199.67568,-154.27026)"><g data-paper-data="{&quot;isPaintingLayer&quot;:true}" fill-rule="nonzero" stroke="none" stroke-width="1" stroke-linecap="butt" stroke-linejoin="miter" stroke-miterlimit="10" stroke-dasharray="" stroke-dashoffset="0" style="mix-blend-mode: normal"><path d="M199.67568,300.32432v-146.05406h146.05406v146.05406z" fill="#ffffff"/><g><g fill="#000000"><g><path d="M239.14974,166.11249v-3.94741h3.94741v3.94741z"/></g></g><g fill="#000000"><g><path d="M247.04456,166.11249v-3.94741h3.94741v3.94741z"/></g></g><g fill="#000000"><g><path d="M250.99196,166.11249v-3.94741h3.94741v3.94741z"/></g></g><g fill="#000000"><g><path d="M258.88678,166.11249v-3.94741h3.94741v3.94741z"/></g></g><g fill="#000000"><g><path d="M270.729,166.11249v-3.94741h3.94741v3.94741z"/></g></g><g fill="#000000"><g><path d="M274.6764,166.11249v-3.94741h3.94741v3.94741z"/></g></g><g fill="#000000"><g><path d="M282.57122,166.11249v-3.94741h3.94741v3.94741z"/></g></g><g fill="#000000"><g><path d="M286.51862,166.11249v-3.94741h3.94741v3.94741z"/></g></g><g fill="#000000"><g><path d="M298.36084,166.11249v-3.94741h3.94741v3.94741z"/></g></g><g fill="#000000"><g><path d="M239.14974,170.05989v-3.94741h3.94741v3.94741z"/></g></g><g fill="#000000"><g><path d="M247.04456,170.05989v-3.94741h3.94741v3.94741z"/></g></g><g fill="#000000"><g><path d="M250.99196,170.05989v-3.94741h3.94741v3.94741z"/></g></g><g fill="#000000"><g><path d="M254.93937,170.05989v-3.94741h3.94741v3.94741z"/></g></g><g fill="#000000"><g><path d="M258.88678,170.05989v-3.94741h3.94741v3.94741z"/></g></g><g fill="#000000"><g><path d="M270.729,170.05989v-3.94741h3.94741v3.94741z"/></g></g><g fill="#000000"><g><path d="M278.62381,170.05989v-3.94741h3.94741v3.94741z"/></g></g><g fill="#000000"><g><path d="M286.51862,170.05989v-3.94741h3.94741v3.94741z"/></g></g><g fill="#000000"><g><path d="M290.46603,170.05989v-3.94741h3.94741v3.94741z"/></g></g><g fill="#000000"><g><path d="M294.41344,170.05989v-3.94741h3.94741v3.94741z"/></g></g><g fill="#000000"><g><path d="M298.36084,170.05989v-3.94741h3.94741v3.94741z"/></g></g><g fill="#000000"><g><path d="M302.30825,170.05989v-3.94741h3.94741v3.94741z"/></g></g><g fill="#000000"><g><path d="M247.04456,174.0073v-3.94741h3.94741v3.94741z"/></g></g><g fill="#000000"><g><path d="M250.99196,174.0073v-3.94741h3.94741v3.94741z"/></g></g><g fill="#000000"><g><path d="M254.93937,174.0073v-3.94741h3.94741v3.94741z"/></g></g><g fill="#000000"><g><path d="M266.78159,174.0073v-3.94741h3.94741v3.94741z"/></g></g><g fill="#000000"><g><path d="M282.57122,174.0073v-3.94741h3.94741v3.94741z"/></g></g><g fill="#000000"><g><path d="M286.51862,174.0073v-3.94741h3.94741v3.94741z"/></g></g><g fill="#000000"><g><path d="M294.41344,174.0073v-3.94741h3.94741v3.94741z"/></g></g><g fill="#000000"><g><path d="M239.14974,177.9547v-3.94741h3.94741v3.94741z"/></g></g><g fill="#000000"><g><path d="M243.09715,177.9547v-3.94741h3.94741v3.94741z"/></g></g><g fill="#000000"><g><path d="M247.04456,177.9547v-3.94741h3.94741v3.94741z"/></g></g><g fill="#000000"><g><path d="M262.83419,177.9547v-3.94741h3.94741v3.94741z"/></g></g><g fill="#000000"><g><path d="M266.78159,177.9547v-3.94741h3.94741v3.94741z"/></g></g><g fill="#000000"><g><path d="M270.729,177.9547v-3.94741h3.94741v3.94741z"/></g></g><g fill="#000000"><g><path d="M274.6764,177.9547v-3.94741h3.94741v3.94741z"/></g></g><g fill="#000000"><g><path d="M290.46603,177.9547v-3.94741h3.94741v3.94741z"/></g></g><g fill="#000000"><g><path d="M294.41344,177.9547v-3.94741h3.94741v3.94741z"/></g></g><g fill="#000000"><g><path d="M302.30825,177.9547v-3.94741h3.94741v3.94741z"/></g></g><g fill="#000000"><g><path d="M243.09715,181.90211v-3.94741h3.94741v3.94741z"/></g></g><g fill="#000000"><g><path d="M247.04456,181.90211v-3.94741h3.94741v3.94741z"/></g></g><g fill="#000000"><g><path d="M258.88678,181.90211v-3.94741h3.94741v3.94741z"/></g></g><g fill="#000000"><g><path d="M262.83419,181.90211v-3.94741h3.94741v3.94741z"/></g></g><g fill="#000000"><g><path d="M274.6764,181.90211v-3.94741h3.94741v3.94741z"/></g></g><g fill="#000000"><g><path d="M290.46603,181.90211v-3.94741h3.94741v3.94741z"/></g></g><g fill="#000000"><g><path d="M302.30825,181.90211v-3.94741h3.94741v3.94741z"/></g></g><g fill="#000000"><g><path d="M247.04456,185.84952v-3.94741h3.94741v3.94741z"/></g></g><g fill="#000000"><g><path d="M254.93937,185.84952v-3.94741h3.94741v3.94741z"/></g></g><g fill="#000000"><g><path d="M258.88678,185.84952v-3.94741h3.94741v3.94741z"/></g></g><g fill="#000000"><g><path d="M278.62381,185.84952v-3.94741h3.94741v3.94741z"/></g></g><g fill="#000000"><g><path d="M282.57122,185.84952v-3.94741h3.94741v3.94741z"/></g></g><g fill="#000000"><g><path d="M290.46603,185.84952v-3.94741h3.94741v3.94741z"/></g></g><g fill="#000000"><g><path d="M302.30825,185.84952v-3.94741h3.94741v3.94741z"/></g></g><g fill="#000000"><g><path d="M239.14974,189.79692v-3.94741h3.94741v3.94741z"/></g></g><g fill="#000000"><g><path d="M247.04456,189.79692v-3.94741h3.94741v3.94741z"/></g></g><g fill="#000000"><g><path d="M254.93937,189.79692v-3.94741h3.94741v3.94741z"/></g></g><g fill="#000000"><g><path d="M262.83419,189.79692v-3.94741h3.94741v3.94741z"/></g></g><g fill="#000000"><g><path d="M270.729,189.79692v-3.94741h3.94741v3.94741z"/></g></g><g fill="#000000"><g><path d="M278.62381,189.79692v-3.94741h3.94741v3.94741z"/></g></g><g fill="#000000"><g><path d="M286.51862,189.79692v-3.94741h3.94741v3.94741z"/></g></g><g fill="#000000"><g><path d="M294.41344,189.79692v-3.94741h3.94741v3.94741z"/></g></g><g fill="#000000"><g><path d="M302.30825,189.79692v-3.94741h3.94741v3.94741z"/></g></g><g fill="#000000"><g><path d="M239.14974,193.74433v-3.94741h3.94741v3.94741z"/></g></g><g fill="#000000"><g><path d="M243.09715,193.74433v-3.94741h3.94741v3.94741z"/></g></g><g fill="#000000"><g><path d="M250.99196,193.74433v-3.94741h3.94741v3.94741z"/></g></g><g fill="#000000"><g><path d="M274.6764,193.74433v-3.94741h3.94741v3.94741z"/></g></g><g fill="#000000"><g><path d="M278.62381,193.74433v-3.94741h3.94741v3.94741z"/></g></g><g fill="#000000"><g><path d="M282.57122,193.74433v-3.94741h3.94741v3.94741z"/></g></g><g fill="#000000"><g><path d="M286.51862,193.74433v-3.94741h3.94741v3.94741z"/></g></g><g fill="#000000"><g><path d="M302.30825,193.74433v-3.94741h3.94741v3.94741z"/></g></g><g fill="#000000"><g><path d="M207.57049,197.69174v-3.94741h3.94741v3.94741z"/></g></g><g fill="#000000"><g><path d="M215.4653,197.69174v-3.94741h3.94741v3.94741z"/></g></g><g fill="#000000"><g><path d="M219.41271,197.69174v-3.94741h3.94741v3.94741z"/></g></g><g fill="#000000"><g><path d="M227.30752,197.69174v-3.94741h3.94741v3.94741z"/></g></g><g fill="#000000"><g><path d="M231.25493,197.69174v-3.94741h3.94741v3.94741z"/></g></g><g fill="#000000"><g><path d="M235.20233,197.69174v-3.94741h3.94741v3.94741z"/></g></g><g fill="#000000"><g><path d="M254.93937,197.69174v-3.94741h3.94741v3.94741z"/></g></g><g fill="#000000"><g><path d="M262.83419,197.69174v-3.94741h3.94741v3.94741z"/></g></g><g fill="#000000"><g><path d="M270.729,197.69174v-3.94741h3.94741v3.94741z"/></g></g><g fill="#000000"><g><path d="M274.6764,197.69174v-3.94741h3.94741v3.94741z"/></g></g><g fill="#000000"><g><path d="M278.62381,197.69174v-3.94741h3.94741v3.94741z"/></g></g><g fill="#000000"><g><path d="M282.57122,197.69174v-3.94741h3.94741v3.94741z"/></g></g><g fill="#000000"><g><path d="M290.46603,197.69174v-3.94741h3.94741v3.94741z"/></g></g><g fill="#000000"><g><path d="M298.36084,197.69174v-3.94741h3.94741v3.94741z"/></g></g><g fill="#000000"><g><path d="M310.20307,197.69174v-3.94741h3.94741v3.94741z"/></g></g><g fill="#000000"><g><path d="M322.04529,197.69174v-3.94741h3.94741v3.94741z"/></g></g><g fill="#000000"><g><path d="M329.9401,197.69174v-3.94741h3.94741v3.94741z"/></g></g><g fill="#000000"><g><path d="M333.88751,197.69174v-3.94741h3.94741v3.94741z"/></g></g><g fill="#000000"><g><path d="M207.57049,201.63915v-3.94741h3.94741v3.94741z"/></g></g><g fill="#000000"><g><path d="M219.41271,201.63915v-3.94741h3.94741v3.94741z"/></g></g><g fill="#000000"><g><path d="M223.36011,201.63915v-3.94741h3.94741v3.94741z"/></g></g><g fill="#000000"><g><path d="M227.30752,201.63915v-3.94741h3.94741v3.94741z"/></g></g><g fill="#000000"><g><path d="M235.20233,201.63915v-3.94741h3.94741v3.94741z"/></g></g><g fill="#000000"><g><path d="M247.04456,201.63915v-3.94741h3.94741v3.94741z"/></g></g><g fill="#000000"><g><path d="M250.99196,201.63915v-3.94741h3.94741v3.94741z"/></g></g><g fill="#000000"><g><path d="M254.93937,201.63915v-3.94741h3.94741v3.94741z"/></g></g><g fill="#000000"><g><path d="M262.83419,201.63915v-3.94741h3.94741v3.94741z"/></g></g><g fill="#000000"><g><path d="M270.729,201.63915v-3.94741h3.94741v3.94741z"/></g></g><g fill="#000000"><g><path d="M274.6764,201.63915v-3.94741h3.94741v3.94741z"/></g></g><g fill="#000000"><g><path d="M278.62381,201.63915v-3.94741h3.94741v3.94741z"/></g></g><g fill="#000000"><g><path d="M282.57122,201.63915v-3.94741h3.94741v3.94741z"/></g></g><g fill="#000000"><g><path d="M286.51862,201.63915v-3.94741h3.94741v3.94741z"/></g></g><g fill="#000000"><g><path d="M290.46603,201.63915v-3.94741h3.94741v3.94741z"/></g></g><g fill="#000000"><g><path d="M298.36084,201.63915v-3.94741h3.94741v3.94741z"/></g></g><g fill="#000000"><g><path d="M310.20307,201.63915v-3.94741h3.94741v3.94741z"/></g></g><g fill="#000000"><g><path d="M314.15047,201.63915v-3.94741h3.94741v3.94741z"/></g></g><g fill="#000000"><g><path d="M322.04529,201.63915v-3.94741h3.94741v3.94741z"/></g></g><g fill="#000000"><g><path d="M325.9927,201.63915v-3.94741h3.94741v3.94741z"/></g></g><g fill="#000000"><g><path d="M333.88751,201.63915v-3.94741h3.94741v3.94741z"/></g></g><g fill="#000000"><g><path d="M207.57049,205.58655v-3.94741h3.94741v3.94741z"/></g></g><g fill="#000000"><g><path d="M215.4653,205.58655v-3.94741h3.94741v3.94741z"/></g></g><g fill="#000000"><g><path d="M219.41271,205.58655v-3.94741h3.94741v3.94741z"/></g></g><g fill="#000000"><g><path d="M231.25493,205.58655v-3.94741h3.94741v3.94741z"/></g></g><g fill="#000000"><g><path d="M235.20233,205.58655v-3.94741h3.94741v3.94741z"/></g></g><g fill="#000000"><g><path d="M239.14974,205.58655v-3.94741h3.94741v3.94741z"/></g></g><g fill="#000000"><g><path d="M243.09715,205.58655v-3.94741h3.94741v3.94741z"/></g></g><g fill="#000000"><g><path d="M250.99196,205.58655v-3.94741h3.94741v3.94741z"/></g></g><g fill="#000000"><g><path d="M254.93937,205.58655v-3.94741h3.94741v3.94741z"/></g></g><g fill="#000000"><g><path d="M262.83419,205.58655v-3.94741h3.94741v3.94741z"/></g></g><g fill="#000000"><g><path d="M274.6764,205.58655v-3.94741h3.94741v3.94741z"/></g></g><g fill="#000000"><g><path d="M290.46603,205.58655v-3.94741h3.94741v3.94741z"/></g></g><g fill="#000000"><g><path d="M298.36084,205.58655v-3.94741h3.94741v3.94741z"/></g></g><g fill="#000000"><g><path d="M302.30825,205.58655v-3.94741h3.94741v3.94741z"/></g></g><g fill="#000000"><g><path d="M306.25566,205.58655v-3.94741h3.94741v3.94741z"/></g></g><g fill="#000000"><g><path d="M310.20307,205.58655v-3.94741h3.94741v3.94741z"/></g></g><g fill="#000000"><g><path d="M314.15047,205.58655v-3.94741h3.94741v3.94741z"/></g></g><g fill="#000000"><g><path d="M318.09788,205.58655v-3.94741h3.94741v3.94741z"/></g></g><g fill="#000000"><g><path d="M322.04529,205.58655v-3.94741h3.94741v3.94741z"/></g></g><g fill="#000000"><g><path d="M329.9401,205.58655v-3.94741h3.94741v3.94741z"/></g></g><g fill="#000000"><g><path d="M333.88751,205.58655v-3.94741h3.94741v3.94741z"/></g></g><g fill="#000000"><g><path d="M207.57049,209.53396v-3.94741h3.94741v3.94741z"/></g></g><g fill="#000000"><g><path d="M227.30752,209.53396v-3.94741h3.94741v3.94741z"/></g></g><g fill="#000000"><g><path d="M239.14974,209.53396v-3.94741h3.94741v3.94741z"/></g></g><g fill="#000000"><g><path d="M247.04456,209.53396v-3.94741h3.94741v3.94741z"/></g></g><g fill="#000000"><g><path d="M258.88678,209.53396v-3.94741h3.94741v3.94741z"/></g></g><g fill="#000000"><g><path d="M262.83419,209.53396v-3.94741h3.94741v3.94741z"/></g></g><g fill="#000000"><g><path d="M266.78159,209.53396v-3.94741h3.94741v3.94741z"/></g></g><g fill="#000000"><g><path d="M278.62381,209.53396v-3.94741h3.94741v3.94741z"/></g></g><g fill="#000000"><g><path d="M286.51862,209.53396v-3.94741h3.94741v3.94741z"/></g></g><g fill="#000000"><g><path d="M306.25566,209.53396v-3.94741h3.94741v3.94741z"/></g></g><g fill="#000000"><g><path d="M314.15047,209.53396v-3.94741h3.94741v3.94741z"/></g></g><g fill="#000000"><g><path d="M322.04529,209.53396v-3.94741h3.94741v3.94741z"/></g></g><g fill="#000000"><g><path d="M211.51789,213.48137v-3.94741h3.94741v3.94741z"/></g></g><g fill="#000000"><g><path d="M215.4653,213.48137v-3.94741h3.94741v3.94741z"/></g></g><g fill="#000000"><g><path d="M223.36011,213.48137v-3.94741h3.94741v3.94741z"/></g></g><g fill="#000000"><g><path d="M231.25493,213.48137v-3.94741h3.94741v3.94741z"/></g></g><g fill="#000000"><g><path d="M239.14974,213.48137v-3.94741h3.94741v3.94741z"/></g></g><g fill="#000000"><g><path d="M243.09715,213.48137v-3.94741h3.94741v3.94741z"/></g></g><g fill="#000000"><g><path d="M254.93937,213.48137v-3.94741h3.94741v3.94741z"/></g></g><g fill="#000000"><g><path d="M274.6764,213.48137v-3.94741h3.94741v3.94741z"/></g></g><g fill="#000000"><g><path d="M282.57122,213.48137v-3.94741h3.94741v3.94741z"/></g></g><g fill="#000000"><g><path d="M286.51862,213.48137v-3.94741h3.94741v3.94741z"/></g></g><g fill="#000000"><g><path d="M294.41344,213.48137v-3.94741h3.94741v3.94741z"/></g></g><g fill="#000000"><g><path d="M298.36084,213.48137v-3.94741h3.94741v3.94741z"/></g></g><g fill="#000000"><g><path d="M302.30825,213.48137v-3.94741h3.94741v3.94741z"/></g></g><g fill="#000000"><g><path d="M306.25566,213.48137v-3.94741h3.94741v3.94741z"/></g></g><g fill="#000000"><g><path d="M314.15047,213.48137v-3.94741h3.94741v3.94741z"/></g></g><g fill="#000000"><g><path d="M322.04529,213.48137v-3.94741h3.94741v3.94741z"/></g></g><g fill="#000000"><g><path d="M329.9401,213.48137v-3.94741h3.94741v3.94741z"/></g></g><g fill="#000000"><g><path d="M207.57049,217.42878v-3.94741h3.94741v3.94741z"/></g></g><g fill="#000000"><g><path d="M211.51789,217.42878v-3.94741h3.94741v3.94741z"/></g></g><g fill="#000000"><g><path d="M215.4653,217.42878v-3.94741h3.94741v3.94741z"/></g></g><g fill="#000000"><g><path d="M219.41271,217.42878v-3.94741h3.94741v3.94741z"/></g></g><g fill="#000000"><g><path d="M227.30752,217.42878v-3.94741h3.94741v3.94741z"/></g></g><g fill="#000000"><g><path d="M243.09715,217.42878v-3.94741h3.94741v3.94741z"/></g></g><g fill="#000000"><g><path d="M270.729,217.42878v-3.94741h3.94741v3.94741z"/></g></g><g fill="#000000"><g><path d="M274.6764,217.42878v-3.94741h3.94741v3.94741z"/></g></g><g fill="#000000"><g><path d="M282.57122,217.42878v-3.94741h3.94741v3.94741z"/></g></g><g fill="#000000"><g><path d="M294.41344,217.42878v-3.94741h3.94741v3.94741z"/></g></g><g fill="#000000"><g><path d="M302.30825,217.42878v-3.94741h3.94741v3.94741z"/></g></g><g fill="#000000"><g><path d="M306.25566,217.42878v-3.94741h3.94741v3.94741z"/></g></g><g fill="#000000"><g><path d="M314.15047,217.42878v-3.94741h3.94741v3.94741z"/></g></g><g fill="#000000"><g><path d="M322.04529,217.42878v-3.94741h3.94741v3.94741z"/></g></g><g fill="#000000"><g><path d="M329.9401,217.42878v-3.94741h3.94741v3.94741z"/></g></g><g fill="#000000"><g><path d="M207.57049,221.37618v-3.94741h3.94741v3.94741z"/></g></g><g fill="#000000"><g><path d="M211.51789,221.37618v-3.94741h3.94741v3.94741z"/></g></g><g fill="#000000"><g><path d="M215.4653,221.37618v-3.94741h3.94741v3.94741z"/></g></g><g fill="#000000"><g><path d="M227.30752,221.37618v-3.94741h3.94741v3.94741z"/></g></g><g fill="#000000"><g><path d="M231.25493,221.37618v-3.94741h3.94741v3.94741z"/></g></g><g fill="#000000"><g><path d="M235.20233,221.37618v-3.94741h3.94741v3.94741z"/></g></g><g fill="#000000"><g><path d="M239.14974,221.37618v-3.94741h3.94741v3.94741z"/></g></g><g fill="#000000"><g><path d="M247.04456,221.37618v-3.94741h3.94741v3.94741z"/></g></g><g fill="#000000"><g><path d="M250.99196,221.37618v-3.94741h3.94741v3.94741z"/></g></g><g fill="#000000"><g><path d="M266.78159,221.37618v-3.94741h3.94741v3.94741z"/></g></g><g fill="#000000"><g><path d="M270.729,221.37618v-3.94741h3.94741v3.94741z"/></g></g><g fill="#000000"><g><path d="M274.6764,221.37618v-3.94741h3.94741v3.94741z"/></g></g><g fill="#000000"><g><path d="M282.57122,221.37618v-3.94741h3.94741v3.94741z"/></g></g><g fill="#000000"><g><path d="M286.51862,221.37618v-3.94741h3.94741v3.94741z"/></g></g><g fill="#000000"><g><path d="M302.30825,221.37618v-3.94741h3.94741v3.94741z"/></g></g><g fill="#000000"><g><path d="M310.20307,221.37618v-3.94741h3.94741v3.94741z"/></g></g><g fill="#000000"><g><path d="M314.15047,221.37618v-3.94741h3.94741v3.94741z"/></g></g><g fill="#000000"><g><path d="M325.9927,221.37618v-3.94741h3.94741v3.94741z"/></g></g><g fill="#000000"><g><path d="M211.51789,225.32359v-3.94741h3.94741v3.94741z"/></g></g><g fill="#000000"><g><path d="M215.4653,225.32359v-3.94741h3.94741v3.94741z"/></g></g><g fill="#000000"><g><path d="M223.36011,225.32359v-3.94741h3.94741v3.94741z"/></g></g><g fill="#000000"><g><path d="M247.04456,225.32359v-3.94741h3.94741v3.94741z"/></g></g><g fill="#000000"><g><path d="M250.99196,225.32359v-3.94741h3.94741v3.94741z"/></g></g><g fill="#000000"><g><path d="M254.93937,225.32359v-3.94741h3.94741v3.94741z"/></g></g><g fill="#000000"><g><path d="M262.83419,225.32359v-3.94741h3.94741v3.94741z"/></g></g><g fill="#000000"><g><path d="M270.729,225.32359v-3.94741h3.94741v3.94741z"/></g></g><g fill="#000000"><g><path d="M286.51862,225.32359v-3.94741h3.94741v3.94741z"/></g></g><g fill="#000000"><g><path d="M290.46603,225.32359v-3.94741h3.94741v3.94741z"/></g></g><g fill="#000000"><g><path d="M306.25566,225.32359v-3.94741h3.94741v3.94741z"/></g></g><g fill="#000000"><g><path d="M310.20307,225.32359v-3.94741h3.94741v3.94741z"/></g></g><g fill="#000000"><g><path d="M318.09788,225.32359v-3.94741h3.94741v3.94741z"/></g></g><g fill="#000000"><g><path d="M325.9927,225.32359v-3.94741h3.94741v3.94741z"/></g></g><g fill="#000000"><g><path d="M207.57049,229.271v-3.94741h3.94741v3.94741z"/></g></g><g fill="#000000"><g><path d="M211.51789,229.271v-3.94741h3.94741v3.94741z"/></g></g><g fill="#000000"><g><path d="M219.41271,229.271v-3.94741h3.94741v3.94741z"/></g></g><g fill="#000000"><g><path d="M227.30752,229.271v-3.94741h3.94741v3.94741z"/></g></g><g fill="#000000"><g><path d="M231.25493,229.271v-3.94741h3.94741v3.94741z"/></g></g><g fill="#000000"><g><path d="M239.14974,229.271v-3.94741h3.94741v3.94741z"/></g></g><g fill="#000000"><g><path d="M247.04456,229.271v-3.94741h3.94741v3.94741z"/></g></g><g fill="#000000"><g><path d="M250.99196,229.271v-3.94741h3.94741v3.94741z"/></g></g><g fill="#000000"><g><path d="M262.83419,229.271v-3.94741h3.94741v3.94741z"/></g></g><g fill="#000000"><g><path d="M266.78159,229.271v-3.94741h3.94741v3.94741z"/></g></g><g fill="#000000"><g><path d="M278.62381,229.271v-3.94741h3.94741v3.94741z"/></g></g><g fill="#000000"><g><path d="M286.51862,229.271v-3.94741h3.94741v3.94741z"/></g></g><g fill="#000000"><g><path d="M290.46603,229.271v-3.94741h3.94741v3.94741z"/></g></g><g fill="#000000"><g><path d="M294.41344,229.271v-3.94741h3.94741v3.94741z"/></g></g><g fill="#000000"><g><path d="M298.36084,229.271v-3.94741h3.94741v3.94741z"/></g></g><g fill="#000000"><g><path d="M306.25566,229.271v-3.94741h3.94741v3.94741z"/></g></g><g fill="#000000"><g><path d="M310.20307,229.271v-3.94741h3.94741v3.94741z"/></g></g><g fill="#000000"><g><path d="M318.09788,229.271v-3.94741h3.94741v3.94741z"/></g></g><g fill="#000000"><g><path d="M322.04529,229.271v-3.94741h3.94741v3.94741z"/></g></g><g fill="#000000"><g><path d="M325.9927,229.271v-3.94741h3.94741v3.94741z"/></g></g><g fill="#000000"><g><path d="M207.57049,233.2184v-3.94741h3.94741v3.94741z"/></g></g><g fill="#000000"><g><path d="M223.36011,233.2184v-3.94741h3.94741v3.94741z"/></g></g><g fill="#000000"><g><path d="M235.20233,233.2184v-3.94741h3.94741v3.94741z"/></g></g><g fill="#000000"><g><path d="M243.09715,233.2184v-3.94741h3.94741v3.94741z"/></g></g><g fill="#000000"><g><path d="M250.99196,233.2184v-3.94741h3.94741v3.94741z"/></g></g><g fill="#000000"><g><path d="M258.88678,233.2184v-3.94741h3.94741v3.94741z"/></g></g><g fill="#000000"><g><path d="M262.83419,233.2184v-3.94741h3.94741v3.94741z"/></g></g><g fill="#000000"><g><path d="M266.78159,233.2184v-3.94741h3.94741v3.94741z"/></g></g><g fill="#000000"><g><path d="M270.729,233.2184v-3.94741h3.94741v3.94741z"/></g></g><g fill="#000000"><g><path d="M274.6764,233.2184v-3.94741h3.94741v3.94741z"/></g></g><g fill="#000000"><g><path d="M278.62381,233.2184v-3.94741h3.94741v3.94741z"/></g></g><g fill="#000000"><g><path d="M286.51862,233.2184v-3.94741h3.94741v3.94741z"/></g></g><g fill="#000000"><g><path d="M294.41344,233.2184v-3.94741h3.94741v3.94741z"/></g></g><g fill="#000000"><g><path d="M298.36084,233.2184v-3.94741h3.94741v3.94741z"/></g></g><g fill="#000000"><g><path d="M302.30825,233.2184v-3.94741h3.94741v3.94741z"/></g></g><g fill="#000000"><g><path d="M306.25566,233.2184v-3.94741h3.94741v3.94741z"/></g></g><g fill="#000000"><g><path d="M310.20307,233.2184v-3.94741h3.94741v3.94741z"/></g></g><g fill="#000000"><g><path d="M318.09788,233.2184v-3.94741h3.94741v3.94741z"/></g></g><g fill="#000000"><g><path d="M322.04529,233.2184v-3.94741h3.94741v3.94741z"/></g></g><g fill="#000000"><g><path d="M333.88751,233.2184v-3.94741h3.94741v3.94741z"/></g></g><g fill="#000000"><g><path d="M211.51789,237.16581v-3.94741h3.94741v3.94741z"/></g></g><g fill="#000000"><g><path d="M215.4653,237.16581v-3.94741h3.94741v3.94741z"/></g></g><g fill="#000000"><g><path d="M219.41271,237.16581v-3.94741h3.94741v3.94741z"/></g></g><g fill="#000000"><g><path d="M223.36011,237.16581v-3.94741h3.94741v3.94741z"/></g></g><g fill="#000000"><g><path d="M231.25493,237.16581v-3.94741h3.94741v3.94741z"/></g></g><g fill="#000000"><g><path d="M239.14974,237.16581v-3.94741h3.94741v3.94741z"/></g></g><g fill="#000000"><g><path d="M243.09715,237.16581v-3.94741h3.94741v3.94741z"/></g></g><g fill="#000000"><g><path d="M254.93937,237.16581v-3.94741h3.94741v3.94741z"/></g></g><g fill="#000000"><g><path d="M262.83419,237.16581v-3.94741h3.94741v3.94741z"/></g></g><g fill="#000000"><g><path d="M266.78159,237.16581v-3.94741h3.94741v3.94741z"/></g></g><g fill="#000000"><g><path d="M274.6764,237.16581v-3.94741h3.94741v3.94741z"/></g></g><g fill="#000000"><g><path d="M278.62381,237.16581v-3.94741h3.94741v3.94741z"/></g></g><g fill="#000000"><g><path d="M302.30825,237.16581v-3.94741h3.94741v3.94741z"/></g></g><g fill="#000000"><g><path d="M306.25566,237.16581v-3.94741h3.94741v3.94741z"/></g></g><g fill="#000000"><g><path d="M314.15047,237.16581v-3.94741h3.94741v3.94741z"/></g></g><g fill="#000000"><g><path d="M318.09788,237.16581v-3.94741h3.94741v3.94741z"/></g></g><g fill="#000000"><g><path d="M325.9927,237.16581v-3.94741h3.94741v3.94741z"/></g></g><g fill="#000000"><g><path d="M329.9401,237.16581v-3.94741h3.94741v3.94741z"/></g></g><g fill="#000000"><g><path d="M207.57049,241.11321v-3.94741h3.94741v3.94741z"/></g></g><g fill="#000000"><g><path d="M215.4653,241.11321v-3.94741h3.94741v3.94741z"/></g></g><g fill="#000000"><g><path d="M219.41271,241.11321v-3.94741h3.94741v3.94741z"/></g></g><g fill="#000000"><g><path d="M227.30752,241.11321v-3.94741h3.94741v3.94741z"/></g></g><g fill="#000000"><g><path d="M239.14974,241.11321v-3.94741h3.94741v3.94741z"/></g></g><g fill="#000000"><g><path d="M243.09715,241.11321v-3.94741h3.94741v3.94741z"/></g></g><g fill="#000000"><g><path d="M247.04456,241.11321v-3.94741h3.94741v3.94741z"/></g></g><g fill="#000000"><g><path d="M254.93937,241.11321v-3.94741h3.94741v3.94741z"/></g></g><g fill="#000000"><g><path d="M262.83419,241.11321v-3.94741h3.94741v3.94741z"/></g></g><g fill="#000000"><g><path d="M266.78159,241.11321v-3.94741h3.94741v3.94741z"/></g></g><g fill="#000000"><g><path d="M270.729,241.11321v-3.94741h3.94741v3.94741z"/></g></g><g fill="#000000"><g><path d="M274.6764,241.11321v-3.94741h3.94741v3.94741z"/></g></g><g fill="#000000"><g><path d="M278.62381,241.11321v-3.94741h3.94741v3.94741z"/></g></g><g fill="#000000"><g><path d="M282.57122,241.11321v-3.94741h3.94741v3.94741z"/></g></g><g fill="#000000"><g><path d="M286.51862,241.11321v-3.94741h3.94741v3.94741z"/></g></g><g fill="#000000"><g><path d="M302.30825,241.11321v-3.94741h3.94741v3.94741z"/></g></g><g fill="#000000"><g><path d="M306.25566,241.11321v-3.94741h3.94741v3.94741z"/></g></g><g fill="#000000"><g><path d="M310.20307,241.11321v-3.94741h3.94741v3.94741z"/></g></g><g fill="#000000"><g><path d="M318.09788,241.11321v-3.94741h3.94741v3.94741z"/></g></g><g fill="#000000"><g><path d="M333.88751,241.11321v-3.94741h3.94741v3.94741z"/></g></g><g fill="#000000"><g><path d="M211.51789,245.06062v-3.94741h3.94741v3.94741z"/></g></g><g fill="#000000"><g><path d="M215.4653,245.06062v-3.94741h3.94741v3.94741z"/></g></g><g fill="#000000"><g><path d="M231.25493,245.06062v-3.94741h3.94741v3.94741z"/></g></g><g fill="#000000"><g><path d="M235.20233,245.06062v-3.94741h3.94741v3.94741z"/></g></g><g fill="#000000"><g><path d="M239.14974,245.06062v-3.94741h3.94741v3.94741z"/></g></g><g fill="#000000"><g><path d="M247.04456,245.06062v-3.94741h3.94741v3.94741z"/></g></g><g fill="#000000"><g><path d="M254.93937,245.06062v-3.94741h3.94741v3.94741z"/></g></g><g fill="#000000"><g><path d="M258.88678,245.06062v-3.94741h3.94741v3.94741z"/></g></g><g fill="#000000"><g><path d="M266.78159,245.06062v-3.94741h3.94741v3.94741z"/></g></g><g fill="#000000"><g><path d="M274.6764,245.06062v-3.94741h3.94741v3.94741z"/></g></g><g fill="#000000"><g><path d="M282.57122,245.06062v-3.94741h3.94741v3.94741z"/></g></g><g fill="#000000"><g><path d="M290.46603,245.06062v-3.94741h3.94741v3.94741z"/></g></g><g fill="#000000"><g><path d="M322.04529,245.06062v-3.94741h3.94741v3.94741z"/></g></g><g fill="#000000"><g><path d="M325.9927,245.06062v-3.94741h3.94741v3.94741z"/></g></g><g fill="#000000"><g><path d="M329.9401,245.06062v-3.94741h3.94741v3.94741z"/></g></g><g fill="#000000"><g><path d="M333.88751,245.06062v-3.94741h3.94741v3.94741z"/></g></g><g fill="#000000"><g><path d="M207.57049,249.00803v-3.94741h3.94741v3.94741z"/></g></g><g fill="#000000"><g><path d="M215.4653,249.00803v-3.94741h3.94741v3.94741z"/></g></g><g fill="#000000"><g><path d="M227.30752,249.00803v-3.94741h3.94741v3.94741z"/></g></g><g fill="#000000"><g><path d="M239.14974,249.00803v-3.94741h3.94741v3.94741z"/></g></g><g fill="#000000"><g><path d="M243.09715,249.00803v-3.94741h3.94741v3.94741z"/></g></g><g fill="#000000"><g><path d="M250.99196,249.00803v-3.94741h3.94741v3.94741z"/></g></g><g fill="#000000"><g><path d="M266.78159,249.00803v-3.94741h3.94741v3.94741z"/></g></g><g fill="#000000"><g><path d="M278.62381,249.00803v-3.94741h3.94741v3.94741z"/></g></g><g fill="#000000"><g><path d="M282.57122,249.00803v-3.94741h3.94741v3.94741z"/></g></g><g fill="#000000"><g><path d="M286.51862,249.00803v-3.94741h3.94741v3.94741z"/></g></g><g fill="#000000"><g><path d="M290.46603,249.00803v-3.94741h3.94741v3.94741z"/></g></g><g fill="#000000"><g><path d="M298.36084,249.00803v-3.94741h3.94741v3.94741z"/></g></g><g fill="#000000"><g><path d="M310.20307,249.00803v-3.94741h3.94741v3.94741z"/></g></g><g fill="#000000"><g><path d="M314.15047,249.00803v-3.94741h3.94741v3.94741z"/></g></g><g fill="#000000"><g><path d="M322.04529,249.00803v-3.94741h3.94741v3.94741z"/></g></g><g fill="#000000"><g><path d="M333.88751,249.00803v-3.94741h3.94741v3.94741z"/></g></g><g fill="#000000"><g><path d="M215.4653,252.95543v-3.94741h3.94741v3.94741z"/></g></g><g fill="#000000"><g><path d="M219.41271,252.95543v-3.94741h3.94741v3.94741z"/></g></g><g fill="#000000"><g><path d="M231.25493,252.95543v-3.94741h3.94741v3.94741z"/></g></g><g fill="#000000"><g><path d="M235.20233,252.95543v-3.94741h3.94741v3.94741z"/></g></g><g fill="#000000"><g><path d="M239.14974,252.95543v-3.94741h3.94741v3.94741z"/></g></g><g fill="#000000"><g><path d="M243.09715,252.95543v-3.94741h3.94741v3.94741z"/></g></g><g fill="#000000"><g><path d="M247.04456,252.95543v-3.94741h3.94741v3.94741z"/></g></g><g fill="#000000"><g><path d="M250.99196,252.95543v-3.94741h3.94741v3.94741z"/></g></g><g fill="#000000"><g><path d="M262.83419,252.95543v-3.94741h3.94741v3.94741z"/></g></g><g fill="#000000"><g><path d="M270.729,252.95543v-3.94741h3.94741v3.94741z"/></g></g><g fill="#000000"><g><path d="M274.6764,252.95543v-3.94741h3.94741v3.94741z"/></g></g><g fill="#000000"><g><path d="M278.62381,252.95543v-3.94741h3.94741v3.94741z"/></g></g><g fill="#000000"><g><path d="M286.51862,252.95543v-3.94741h3.94741v3.94741z"/></g></g><g fill="#000000"><g><path d="M298.36084,252.95543v-3.94741h3.94741v3.94741z"/></g></g><g fill="#000000"><g><path d="M302.30825,252.95543v-3.94741h3.94741v3.94741z"/></g></g><g fill="#000000"><g><path d="M306.25566,252.95543v-3.94741h3.94741v3.94741z"/></g></g><g fill="#000000"><g><path d="M314.15047,252.95543v-3.94741h3.94741v3.94741z"/></g></g><g fill="#000000"><g><path d="M318.09788,252.95543v-3.94741h3.94741v3.94741z"/></g></g><g fill="#000000"><g><path d="M322.04529,252.95543v-3.94741h3.94741v3.94741z"/></g></g><g fill="#000000"><g><path d="M325.9927,252.95543v-3.94741h3.94741v3.94741z"/></g></g><g fill="#000000"><g><path d="M329.9401,252.95543v-3.94741h3.94741v3.94741z"/></g></g><g fill="#000000"><g><path d="M333.88751,252.95543v-3.94741h3.94741v3.94741z"/></g></g><g fill="#000000"><g><path d="M211.51789,256.90284v-3.94741h3.94741v3.94741z"/></g></g><g fill="#000000"><g><path d="M243.09715,256.90284v-3.94741h3.94741v3.94741z"/></g></g><g fill="#000000"><g><path d="M247.04456,256.90284v-3.94741h3.94741v3.94741z"/></g></g><g fill="#000000"><g><path d="M258.88678,256.90284v-3.94741h3.94741v3.94741z"/></g></g><g fill="#000000"><g><path d="M262.83419,256.90284v-3.94741h3.94741v3.94741z"/></g></g><g fill="#000000"><g><path d="M270.729,256.90284v-3.94741h3.94741v3.94741z"/></g></g><g fill="#000000"><g><path d="M282.57122,256.90284v-3.94741h3.94741v3.94741z"/></g></g><g fill="#000000"><g><path d="M286.51862,256.90284v-3.94741h3.94741v3.94741z"/></g></g><g fill="#000000"><g><path d="M298.36084,256.90284v-3.94741h3.94741v3.94741z"/></g></g><g fill="#000000"><g><path d="M302.30825,256.90284v-3.94741h3.94741v3.94741z"/></g></g><g fill="#000000"><g><path d="M306.25566,256.90284v-3.94741h3.94741v3.94741z"/></g></g><g fill="#000000"><g><path d="M314.15047,256.90284v-3.94741h3.94741v3.94741z"/></g></g><g fill="#000000"><g><path d="M322.04529,256.90284v-3.94741h3.94741v3.94741z"/></g></g><g fill="#000000"><g><path d="M329.9401,256.90284v-3.94741h3.94741v3.94741z"/></g></g><g fill="#000000"><g><path d="M207.57049,260.85025v-3.94741h3.94741v3.94741z"/></g></g><g fill="#000000"><g><path d="M215.4653,260.85025v-3.94741h3.94741v3.94741z"/></g></g><g fill="#000000"><g><path d="M227.30752,260.85025v-3.94741h3.94741v3.94741z"/></g></g><g fill="#000000"><g><path d="M231.25493,260.85025v-3.94741h3.94741v3.94741z"/></g></g><g fill="#000000"><g><path d="M235.20233,260.85025v-3.94741h3.94741v3.94741z"/></g></g><g fill="#000000"><g><path d="M239.14974,260.85025v-3.94741h3.94741v3.94741z"/></g></g><g fill="#000000"><g><path d="M243.09715,260.85025v-3.94741h3.94741v3.94741z"/></g></g><g fill="#000000"><g><path d="M247.04456,260.85025v-3.94741h3.94741v3.94741z"/></g></g><g fill="#000000"><g><path d="M250.99196,260.85025v-3.94741h3.94741v3.94741z"/></g></g><g fill="#000000"><g><path d="M254.93937,260.85025v-3.94741h3.94741v3.94741z"/></g></g><g fill="#000000"><g><path d="M262.83419,260.85025v-3.94741h3.94741v3.94741z"/></g></g><g fill="#000000"><g><path d="M266.78159,260.85025v-3.94741h3.94741v3.94741z"/></g></g><g fill="#000000"><g><path d="M274.6764,260.85025v-3.94741h3.94741v3.94741z"/></g></g><g fill="#000000"><g><path d="M282.57122,260.85025v-3.94741h3.94741v3.94741z"/></g></g><g fill="#000000"><g><path d="M286.51862,260.85025v-3.94741h3.94741v3.94741z"/></g></g><g fill="#000000"><g><path d="M294.41344,260.85025v-3.94741h3.94741v3.94741z"/></g></g><g fill="#000000"><g><path d="M302.30825,260.85025v-3.94741h3.94741v3.94741z"/></g></g><g fill="#000000"><g><path d="M306.25566,260.85025v-3.94741h3.94741v3.94741z"/></g></g><g fill="#000000"><g><path d="M310.20307,260.85025v-3.94741h3.94741v3.94741z"/></g></g><g fill="#000000"><g><path d="M314.15047,260.85025v-3.94741h3.94741v3.94741z"/></g></g><g fill="#000000"><g><path d="M318.09788,260.85025v-3.94741h3.94741v3.94741z"/></g></g><g fill="#000000"><g><path d="M333.88751,260.85025v-3.94741h3.94741v3.94741z"/></g></g><g fill="#000000"><g><path d="M239.14974,264.79766v-3.94741h3.94741v3.94741z"/></g></g><g fill="#000000"><g><path d="M243.09715,264.79766v-3.94741h3.94741v3.94741z"/></g></g><g fill="#000000"><g><path d="M247.04456,264.79766v-3.94741h3.94741v3.94741z"/></g></g><g fill="#000000"><g><path d="M250.99196,264.79766v-3.94741h3.94741v3.94741z"/></g></g><g fill="#000000"><g><path d="M262.83419,264.79766v-3.94741h3.94741v3.94741z"/></g></g><g fill="#000000"><g><path d="M266.78159,264.79766v-3.94741h3.94741v3.94741z"/></g></g><g fill="#000000"><g><path d="M270.729,264.79766v-3.94741h3.94741v3.94741z"/></g></g><g fill="#000000"><g><path d="M282.57122,264.79766v-3.94741h3.94741v3.94741z"/></g></g><g fill="#000000"><g><path d="M302.30825,264.79766v-3.94741h3.94741v3.94741z"/></g></g><g fill="#000000"><g><path d="M318.09788,264.79766v-3.94741h3.94741v3.94741z"/></g></g><g fill="#000000"><g><path d="M322.04529,264.79766v-3.94741h3.94741v3.94741z"/></g></g><g fill="#000000"><g><path d="M239.14974,268.74506v-3.94741h3.94741v3.94741z"/></g></g><g fill="#000000"><g><path d="M247.04456,268.74506v-3.94741h3.94741v3.94741z"/></g></g><g fill="#000000"><g><path d="M262.83419,268.74506v-3.94741h3.94741v3.94741z"/></g></g><g fill="#000000"><g><path d="M274.6764,268.74506v-3.94741h3.94741v3.94741z"/></g></g><g fill="#000000"><g><path d="M278.62381,268.74506v-3.94741h3.94741v3.94741z"/></g></g><g fill="#000000"><g><path d="M282.57122,268.74506v-3.94741h3.94741v3.94741z"/></g></g><g fill="#000000"><g><path d="M294.41344,268.74506v-3.94741h3.94741v3.94741z"/></g></g><g fill="#000000"><g><path d="M298.36084,268.74506v-3.94741h3.94741v3.94741z"/></g></g><g fill="#000000"><g><path d="M302.30825,268.74506v-3.94741h3.94741v3.94741z"/></g></g><g fill="#000000"><g><path d="M310.20307,268.74506v-3.94741h3.94741v3.94741z"/></g></g><g fill="#000000"><g><path d="M318.09788,268.74506v-3.94741h3.94741v3.94741z"/></g></g><g fill="#000000"><g><path d="M239.14974,272.69247v-3.94741h3.94741v3.94741z"/></g></g><g fill="#000000"><g><path d="M250.99196,272.69247v-3.94741h3.94741v3.94741z"/></g></g><g fill="#000000"><g><path d="M262.83419,272.69247v-3.94741h3.94741v3.94741z"/></g></g><g fill="#000000"><g><path d="M270.729,272.69247v-3.94741h3.94741v3.94741z"/></g></g><g fill="#000000"><g><path d="M290.46603,272.69247v-3.94741h3.94741v3.94741z"/></g></g><g fill="#000000"><g><path d="M294.41344,272.69247v-3.94741h3.94741v3.94741z"/></g></g><g fill="#000000"><g><path d="M298.36084,272.69247v-3.94741h3.94741v3.94741z"/></g></g><g fill="#000000"><g><path d="M302.30825,272.69247v-3.94741h3.94741v3.94741z"/></g></g><g fill="#000000"><g><path d="M318.09788,272.69247v-3.94741h3.94741v3.94741z"/></g></g><g fill="#000000"><g><path d="M322.04529,272.69247v-3.94741h3.94741v3.94741z"/></g></g><g fill="#000000"><g><path d="M325.9927,272.69247v-3.94741h3.94741v3.94741z"/></g></g><g fill="#000000"><g><path d="M243.09715,276.63988v-3.94741h3.94741v3.94741z"/></g></g><g fill="#000000"><g><path d="M250.99196,276.63988v-3.94741h3.94741v3.94741z"/></g></g><g fill="#000000"><g><path d="M254.93937,276.63988v-3.94741h3.94741v3.94741z"/></g></g><g fill="#000000"><g><path d="M258.88678,276.63988v-3.94741h3.94741v3.94741z"/></g></g><g fill="#000000"><g><path d="M266.78159,276.63988v-3.94741h3.94741v3.94741z"/></g></g><g fill="#000000"><g><path d="M274.6764,276.63988v-3.94741h3.94741v3.94741z"/></g></g><g fill="#000000"><g><path d="M286.51862,276.63988v-3.94741h3.94741v3.94741z"/></g></g><g fill="#000000"><g><path d="M290.46603,276.63988v-3.94741h3.94741v3.94741z"/></g></g><g fill="#000000"><g><path d="M294.41344,276.63988v-3.94741h3.94741v3.94741z"/></g></g><g fill="#000000"><g><path d="M298.36084,276.63988v-3.94741h3.94741v3.94741z"/></g></g><g fill="#000000"><g><path d="M302.30825,276.63988v-3.94741h3.94741v3.94741z"/></g></g><g fill="#000000"><g><path d="M306.25566,276.63988v-3.94741h3.94741v3.94741z"/></g></g><g fill="#000000"><g><path d="M310.20307,276.63988v-3.94741h3.94741v3.94741z"/></g></g><g fill="#000000"><g><path d="M314.15047,276.63988v-3.94741h3.94741v3.94741z"/></g></g><g fill="#000000"><g><path d="M318.09788,276.63988v-3.94741h3.94741v3.94741z"/></g></g><g fill="#000000"><g><path d="M325.9927,276.63988v-3.94741h3.94741v3.94741z"/></g></g><g fill="#000000"><g><path d="M329.9401,276.63988v-3.94741h3.94741v3.94741z"/></g></g><g fill="#000000"><g><path d="M333.88751,276.63988v-3.94741h3.94741v3.94741z"/></g></g><g fill="#000000"><g><path d="M239.14974,280.58729v-3.94741h3.94741v3.94741z"/></g></g><g fill="#000000"><g><path d="M250.99196,280.58729v-3.94741h3.94741v3.94741z"/></g></g><g fill="#000000"><g><path d="M254.93937,280.58729v-3.94741h3.94741v3.94741z"/></g></g><g fill="#000000"><g><path d="M258.88678,280.58729v-3.94741h3.94741v3.94741z"/></g></g><g fill="#000000"><g><path d="M274.6764,280.58729v-3.94741h3.94741v3.94741z"/></g></g><g fill="#000000"><g><path d="M286.51862,280.58729v-3.94741h3.94741v3.94741z"/></g></g><g fill="#000000"><g><path d="M290.46603,280.58729v-3.94741h3.94741v3.94741z"/></g></g><g fill="#000000"><g><path d="M298.36084,280.58729v-3.94741h3.94741v3.94741z"/></g></g><g fill="#000000"><g><path d="M314.15047,280.58729v-3.94741h3.94741v3.94741z"/></g></g><g fill="#000000"><g><path d="M325.9927,280.58729v-3.94741h3.94741v3.94741z"/></g></g><g fill="#000000"><g><path d="M333.88751,280.58729v-3.94741h3.94741v3.94741z"/></g></g><g fill="#000000"><g><path d="M239.14974,284.53469v-3.94741h3.94741v3.94741z"/></g></g><g fill="#000000"><g><path d="M243.09715,284.53469v-3.94741h3.94741v3.94741z"/></g></g><g fill="#000000"><g><path d="M247.04456,284.53469v-3.94741h3.94741v3.94741z"/></g></g><g fill="#000000"><g><path d="M250.99196,284.53469v-3.94741h3.94741v3.94741z"/></g></g><g fill="#000000"><g><path d="M278.62381,284.53469v-3.94741h3.94741v3.94741z"/></g></g><g fill="#000000"><g><path d="M286.51862,284.53469v-3.94741h3.94741v3.94741z"/></g></g><g fill="#000000"><g><path d="M294.41344,284.53469v-3.94741h3.94741v3.94741z"/></g></g><g fill="#000000"><g><path d="M298.36084,284.53469v-3.94741h3.94741v3.94741z"/></g></g><g fill="#000000"><g><path d="M302.30825,284.53469v-3.94741h3.94741v3.94741z"/></g></g><g fill="#000000"><g><path d="M310.20307,284.53469v-3.94741h3.94741v3.94741z"/></g></g><g fill="#000000"><g><path d="M314.15047,284.53469v-3.94741h3.94741v3.94741z"/></g></g><g fill="#000000"><g><path d="M322.04529,284.53469v-3.94741h3.94741v3.94741z"/></g></g><g fill="#000000"><g><path d="M325.9927,284.53469v-3.94741h3.94741v3.94741z"/></g></g><g fill="#000000"><g><path d="M247.04456,288.4821v-3.94741h3.94741v3.94741z"/></g></g><g fill="#000000"><g><path d="M250.99196,288.4821v-3.94741h3.94741v3.94741z"/></g></g><g fill="#000000"><g><path d="M266.78159,288.4821v-3.94741h3.94741v3.94741z"/></g></g><g fill="#000000"><g><path d="M270.729,288.4821v-3.94741h3.94741v3.94741z"/></g></g><g fill="#000000"><g><path d="M274.6764,288.4821v-3.94741h3.94741v3.94741z"/></g></g><g fill="#000000"><g><path d="M278.62381,288.4821v-3.94741h3.94741v3.94741z"/></g></g><g fill="#000000"><g><path d="M282.57122,288.4821v-3.94741h3.94741v3.94741z"/></g></g><g fill="#000000"><g><path d="M298.36084,288.4821v-3.94741h3.94741v3.94741z"/></g></g><g fill="#000000"><g><path d="M302.30825,288.4821v-3.94741h3.94741v3.94741z"/></g></g><g fill="#000000"><g><path d="M306.25566,288.4821v-3.94741h3.94741v3.94741z"/></g></g><g fill="#000000"><g><path d="M314.15047,288.4821v-3.94741h3.94741v3.94741z"/></g></g><g fill="#000000"><g><path d="M318.09788,288.4821v-3.94741h3.94741v3.94741z"/></g></g><g fill="#000000"><g><path d="M333.88751,288.4821v-3.94741h3.94741v3.94741z"/></g></g><g fill="#000000"><g><path d="M239.14974,292.4295v-3.94741h3.94741v3.94741z"/></g></g><g fill="#000000"><g><path d="M243.09715,292.4295v-3.94741h3.94741v3.94741z"/></g></g><g fill="#000000"><g><path d="M247.04456,292.4295v-3.94741h3.94741v3.94741z"/></g></g><g fill="#000000"><g><path d="M254.93937,292.4295v-3.94741h3.94741v3.94741z"/></g></g><g fill="#000000"><g><path d="M258.88678,292.4295v-3.94741h3.94741v3.94741z"/></g></g><g fill="#000000"><g><path d="M266.78159,292.4295v-3.94741h3.94741v3.94741z"/></g></g><g fill="#000000"><g><path d="M270.729,292.4295v-3.94741h3.94741v3.94741z"/></g></g><g fill="#000000"><g><path d="M274.6764,292.4295v-3.94741h3.94741v3.94741z"/></g></g><g fill="#000000"><g><path d="M278.62381,292.4295v-3.94741h3.94741v3.94741z"/></g></g><g fill="#000000"><g><path d="M282.57122,292.4295v-3.94741h3.94741v3.94741z"/></g></g><g fill="#000000"><g><path d="M286.51862,292.4295v-3.94741h3.94741v3.94741z"/></g></g><g fill="#000000"><g><path d="M290.46603,292.4295v-3.94741h3.94741v3.94741z"/></g></g><g fill="#000000"><g><path d="M298.36084,292.4295v-3.94741h3.94741v3.94741z"/></g></g><g fill="#000000"><g><path d="M306.25566,292.4295v-3.94741h3.94741v3.94741z"/></g></g><g fill="#000000"><g><path d="M310.20307,292.4295v-3.94741h3.94741v3.94741z"/></g></g><g fill="#000000"><g><path d="M318.09788,292.4295v-3.94741h3.94741v3.94741z"/></g></g><g fill="#000000"><g><path d="M325.9927,292.4295v-3.94741h3.94741v3.94741z"/></g></g><g><g><g><path d="M211.71526,185.65215v-19.3423h19.3423v19.3423z" fill="none"/><path d="M235.20233,162.16508v4.14478v19.3423v4.14478h-4.14478h-19.3423h-4.14478v-4.14478v-19.3423v-4.14478h4.14478h19.3423zM231.05756,166.30986h-19.3423v19.3423h19.3423z" fill="#000000"/></g></g></g><g><g><g><path d="M314.34784,185.65215v-19.3423h19.3423v19.3423z" fill="none"/><path d="M337.83491,162.16508v4.14478v19.3423v4.14478h-4.14478h-19.3423h-4.14478v-4.14478v-19.3423v-4.14478h4.14478h19.3423zM333.69014,166.30986h-19.3423v19.3423h19.3423z" fill="#000000"/></g></g></g><g><g><g><path d="M211.71526,288.28473v-19.3423h19.3423v19.3423z" fill="none"/><path d="M235.20233,264.79766v4.14478v19.3423v4.14478h-4.14478h-19.3423h-4.14478v-4.14478v-19.3423v-4.14478h4.14478h19.3423zM231.05756,268.94243h-19.3423v19.3423h19.3423z" fill="#000000"/></g></g></g><g fill="#000000"><g><path d="M215.4653,181.90211v-11.84222h11.84222v11.84222z"/></g></g><g fill="#000000"><g><path d="M318.09788,181.90211v-11.84222h11.84222v11.84222z"/></g></g><g fill="#000000"><g><path d="M215.4653,284.53469v-11.84222h11.84222v11.84222z"/></g></g></g></g></g></svg>