<svg version="1.1" xmlns="http://www.w3.org/2000/svg" xmlns:xlink="http://www.w3.org/1999/xlink" width="24.66667" height="24.66667" viewBox="0,0,24.66667,24.66667"><g transform="translate(-307.66667,-167.66665)"><g data-paper-data="{&quot;isPaintingLayer&quot;:true}" fill-rule="nonzero" stroke="none" stroke-linecap="butt" stroke-linejoin="miter" stroke-miterlimit="10" stroke-dasharray="" stroke-dashoffset="0" style="mix-blend-mode: normal"><path d="M307.66667,192.33333v-24.66667h24.66667v24.66667z" fill="#ffffff" stroke-width="0"/><path d="M319.406,179.312c1.363,0.218 4.204,0.667 4.228,3.222c0.012,0.856 -0.397,1.701 -1.11,2.32c-0.77956,0.69017 -1.82905,0.99149 -2.856,0.82c-0.69151,-0.12435 -1.35073,-0.38729 -1.938,-0.773c-0.004,0.745 0.029,1.284 0.029,1.29c0.0143,0.1817 -0.04484,0.36156 -0.16418,0.49932c-0.11934,0.13776 -0.28893,0.22193 -0.47082,0.23368c-0.377,0.026 -0.699,-0.262 -0.727,-0.644c0,-0.048 -0.07,-1.161 0,-2.474c0.049,-0.816 0.066,-2.17 0.066,-2.183c0.00185,-0.18274 0.07622,-0.35726 0.20674,-0.48516c0.13053,-0.1279 0.30652,-0.19871 0.48926,-0.19684c0.37796,0.01144 0.6763,0.32494 0.669,0.703c0,0.013 -0.001,0.12 -0.005,0.283c0.028,0.363 0.118,0.936 0.378,1.3c0.307,0.432 0.914,0.806 1.154,0.942c0.17527,0.06242 0.35561,0.1096 0.539,0.141c0.6292,0.0966 1.26901,-0.08887 1.749,-0.507c0.403,-0.351 0.634,-0.808 0.627,-1.254c-0.011,-1.148 -1.236,-1.575 -3.074,-1.868c-1.689,-0.268 -2.408,-1.648 -2.13,-3.837l0.02,-0.196c0.136,-1.107 0.361,-3.028 2.419,-2.918c0.771,0.047 1.458,0.578 1.994,1.17c0.013,-0.601 0.014,-1.197 0.014,-1.206c-0.0008,-0.18167 0.07061,-0.35622 0.19851,-0.48525c0.1279,-0.12903 0.30182,-0.20196 0.48349,-0.20275c0.378,0.006 0.68,0.316 0.68,0.696c0,0.071 -0.168,4.392 -0.176,4.436c-0.05226,0.32889 -0.33502,0.57154 -0.66803,0.57328c-0.33301,0.00174 -0.61828,-0.23795 -0.67397,-0.56628v0.002l-0.042,-0.402c-0.027,-0.328 -0.091,-0.632 -0.281,-1.098c-0.265,-0.636 -0.734,-0.957 -0.945,-1.204c-0.228,-0.19 -0.456,-0.317 -0.654,-0.33c-0.675,-0.037 -0.821,0.28 -0.996,1.706l-0.023,0.198c-0.208,1.641 0.21,2.172 0.99,2.295M322.275,168c3.055,0.057 5.539,2.624 5.539,5.727c0,0.034 -0.104,3.757 -0.221,5.03c0.632,1.125 0.965,2.401 0.978,3.763c0.029,2.345 -1.004,4.603 -2.83,6.19c-1.44118,1.26973 -3.27576,2.00427 -5.195,2.08c-0.98249,0.7866 -2.20443,1.21355 -3.463,1.21c-2.924,0 -5.385,-2.324 -5.609,-5.292l-0.013,-0.209c-0.04584,-0.97953 -0.04317,-1.96073 0.008,-2.94c0.02976,-0.64964 0.04876,-1.29973 0.057,-1.95v-0.016c0.0147,-0.87938 0.22838,-1.74401 0.625,-2.529c-0.113,-0.868 -0.11,-1.798 0.01,-2.772c0.01,-0.092 0.016,-0.173 0.028,-0.262c0.099,-0.829 0.271,-2.186 0.999,-3.579c1.213,-2.336 3.513,-3.728 6.15,-3.728h0.112c0.82997,-0.47307 1.76868,-0.72222 2.724,-0.723zM320.163,171.469c-0.27199,-0.0482 -0.54778,-0.07163 -0.824,-0.07c-1.68,0 -3.083,0.845 -3.848,2.318c-0.512,0.98 -0.637,2.005 -0.72,2.7l-0.024,0.212c-0.145,1.184 -0.07,2.185 0.167,3.02c-0.4947,0.55968 -0.77249,1.2781 -0.783,2.025c-0.002,0.249 -0.023,1.401 -0.062,2.08c-0.04485,0.88673 -0.04652,1.77511 -0.005,2.662l0.008,0.122c0.116,1.601 1.44,2.856 3.013,2.856c0.8703,0.00242 1.69787,-0.377 2.264,-1.038c0.06022,-0.06931 0.11761,-0.14103 0.172,-0.215c0.23815,0.03038 0.47792,0.04641 0.718,0.048c1.40001,-0.00378 2.75078,-0.51707 3.8,-1.444c1.245,-1.084 1.947,-2.605 1.926,-4.16c-0.01,-1.256 -0.419,-2.366 -1.175,-3.256c0.09377,-0.2215 0.16188,-0.45301 0.203,-0.69c0.07,-0.386 0.215,-4.845 0.215,-4.883c0,-1.669 -1.336,-3.051 -2.978,-3.081c-0.797,-0.016 -1.521,0.294 -2.067,0.794z" fill="#000000" stroke-width="1"/></g></g></svg>