<svg version="1.1" xmlns="http://www.w3.org/2000/svg" xmlns:xlink="http://www.w3.org/1999/xlink" width="240.64865" height="240.64865" viewBox="0,0,240.64865,240.64865"><g transform="translate(-199.67568,-59.67568)"><g data-paper-data="{&quot;isPaintingLayer&quot;:true}" fill-rule="nonzero" stroke="none" stroke-width="1" stroke-linecap="butt" stroke-linejoin="miter" stroke-miterlimit="10" stroke-dasharray="" stroke-dashoffset="0" style="mix-blend-mode: normal"><g><path d="M199.67568,300.32432v-240.64865h240.64865v240.64865z" fill="#ffffff"/><g><g fill="#000000"><g><path d="M264.71585,79.18773v-6.50402h6.50402v6.50402z"/></g></g><g fill="#000000"><g><path d="M277.72389,79.18773v-6.50402h6.50402v6.50402z"/></g></g><g fill="#000000"><g><path d="M284.2279,79.18773v-6.50402h6.50402v6.50402z"/></g></g><g fill="#000000"><g><path d="M297.23594,79.18773v-6.50402h6.50402v6.50402z"/></g></g><g fill="#000000"><g><path d="M316.74799,79.18773v-6.50402h6.50402v6.50402z"/></g></g><g fill="#000000"><g><path d="M323.25201,79.18773v-6.50402h6.50402v6.50402z"/></g></g><g fill="#000000"><g><path d="M336.26004,79.18773v-6.50402h6.50402v6.50402z"/></g></g><g fill="#000000"><g><path d="M342.76406,79.18773v-6.50402h6.50402v6.50402z"/></g></g><g fill="#000000"><g><path d="M362.27611,79.18773v-6.50402h6.50402v6.50402z"/></g></g><g fill="#000000"><g><path d="M264.71585,85.69175v-6.50402h6.50402v6.50402z"/></g></g><g fill="#000000"><g><path d="M277.72389,85.69175v-6.50402h6.50402v6.50402z"/></g></g><g fill="#000000"><g><path d="M284.2279,85.69175v-6.50402h6.50402v6.50402z"/></g></g><g fill="#000000"><g><path d="M290.73192,85.69175v-6.50402h6.50402v6.50402z"/></g></g><g fill="#000000"><g><path d="M297.23594,85.69175v-6.50402h6.50402v6.50402z"/></g></g><g fill="#000000"><g><path d="M316.74799,85.69175v-6.50402h6.50402v6.50402z"/></g></g><g fill="#000000"><g><path d="M329.75603,85.69175v-6.50402h6.50402v6.50402z"/></g></g><g fill="#000000"><g><path d="M342.76406,85.69175v-6.50402h6.50402v6.50402z"/></g></g><g fill="#000000"><g><path d="M349.26808,85.69175v-6.50402h6.50402v6.50402z"/></g></g><g fill="#000000"><g><path d="M355.7721,85.69175v-6.50402h6.50402v6.50402z"/></g></g><g fill="#000000"><g><path d="M362.27611,85.69175v-6.50402h6.50402v6.50402z"/></g></g><g fill="#000000"><g><path d="M368.78013,85.69175v-6.50402h6.50402v6.50402z"/></g></g><g fill="#000000"><g><path d="M277.72389,92.19576v-6.50402h6.50402v6.50402z"/></g></g><g fill="#000000"><g><path d="M284.2279,92.19576v-6.50402h6.50402v6.50402z"/></g></g><g fill="#000000"><g><path d="M290.73192,92.19576v-6.50402h6.50402v6.50402z"/></g></g><g fill="#000000"><g><path d="M310.24397,92.19576v-6.50402h6.50402v6.50402z"/></g></g><g fill="#000000"><g><path d="M336.26004,92.19576v-6.50402h6.50402v6.50402z"/></g></g><g fill="#000000"><g><path d="M342.76406,92.19576v-6.50402h6.50402v6.50402z"/></g></g><g fill="#000000"><g><path d="M355.7721,92.19576v-6.50402h6.50402v6.50402z"/></g></g><g fill="#000000"><g><path d="M264.71585,98.69978v-6.50402h6.50402v6.50402z"/></g></g><g fill="#000000"><g><path d="M271.21987,98.69978v-6.50402h6.50402v6.50402z"/></g></g><g fill="#000000"><g><path d="M277.72389,98.69978v-6.50402h6.50402v6.50402z"/></g></g><g fill="#000000"><g><path d="M303.73996,98.69978v-6.50402h6.50402v6.50402z"/></g></g><g fill="#000000"><g><path d="M310.24397,98.69978v-6.50402h6.50402v6.50402z"/></g></g><g fill="#000000"><g><path d="M316.74799,98.69978v-6.50402h6.50402v6.50402z"/></g></g><g fill="#000000"><g><path d="M323.25201,98.69978v-6.50402h6.50402v6.50402z"/></g></g><g fill="#000000"><g><path d="M349.26808,98.69978v-6.50402h6.50402v6.50402z"/></g></g><g fill="#000000"><g><path d="M355.7721,98.69978v-6.50402h6.50402v6.50402z"/></g></g><g fill="#000000"><g><path d="M368.78013,98.69978v-6.50402h6.50402v6.50402z"/></g></g><g fill="#000000"><g><path d="M271.21987,105.2038v-6.50402h6.50402v6.50402z"/></g></g><g fill="#000000"><g><path d="M277.72389,105.2038v-6.50402h6.50402v6.50402z"/></g></g><g fill="#000000"><g><path d="M297.23594,105.2038v-6.50402h6.50402v6.50402z"/></g></g><g fill="#000000"><g><path d="M303.73996,105.2038v-6.50402h6.50402v6.50402z"/></g></g><g fill="#000000"><g><path d="M323.25201,105.2038v-6.50402h6.50402v6.50402z"/></g></g><g fill="#000000"><g><path d="M349.26808,105.2038v-6.50402h6.50402v6.50402z"/></g></g><g fill="#000000"><g><path d="M368.78013,105.2038v-6.50402h6.50402v6.50402z"/></g></g><g fill="#000000"><g><path d="M277.72389,111.70782v-6.50402h6.50402v6.50402z"/></g></g><g fill="#000000"><g><path d="M290.73192,111.70782v-6.50402h6.50402v6.50402z"/></g></g><g fill="#000000"><g><path d="M297.23594,111.70782v-6.50402h6.50402v6.50402z"/></g></g><g fill="#000000"><g><path d="M329.75603,111.70782v-6.50402h6.50402v6.50402z"/></g></g><g fill="#000000"><g><path d="M336.26004,111.70782v-6.50402h6.50402v6.50402z"/></g></g><g fill="#000000"><g><path d="M349.26808,111.70782v-6.50402h6.50402v6.50402z"/></g></g><g fill="#000000"><g><path d="M368.78013,111.70782v-6.50402h6.50402v6.50402z"/></g></g><g fill="#000000"><g><path d="M264.71585,118.21183v-6.50402h6.50402v6.50402z"/></g></g><g fill="#000000"><g><path d="M277.72389,118.21183v-6.50402h6.50402v6.50402z"/></g></g><g fill="#000000"><g><path d="M290.73192,118.21183v-6.50402h6.50402v6.50402z"/></g></g><g fill="#000000"><g><path d="M303.73996,118.21183v-6.50402h6.50402v6.50402z"/></g></g><g fill="#000000"><g><path d="M316.74799,118.21183v-6.50402h6.50402v6.50402z"/></g></g><g fill="#000000"><g><path d="M329.75603,118.21183v-6.50402h6.50402v6.50402z"/></g></g><g fill="#000000"><g><path d="M342.76406,118.21183v-6.50402h6.50402v6.50402z"/></g></g><g fill="#000000"><g><path d="M355.7721,118.21183v-6.50402h6.50402v6.50402z"/></g></g><g fill="#000000"><g><path d="M368.78013,118.21183v-6.50402h6.50402v6.50402z"/></g></g><g fill="#000000"><g><path d="M264.71585,124.71585v-6.50402h6.50402v6.50402z"/></g></g><g fill="#000000"><g><path d="M271.21987,124.71585v-6.50402h6.50402v6.50402z"/></g></g><g fill="#000000"><g><path d="M284.2279,124.71585v-6.50402h6.50402v6.50402z"/></g></g><g fill="#000000"><g><path d="M323.25201,124.71585v-6.50402h6.50402v6.50402z"/></g></g><g fill="#000000"><g><path d="M329.75603,124.71585v-6.50402h6.50402v6.50402z"/></g></g><g fill="#000000"><g><path d="M336.26004,124.71585v-6.50402h6.50402v6.50402z"/></g></g><g fill="#000000"><g><path d="M342.76406,124.71585v-6.50402h6.50402v6.50402z"/></g></g><g fill="#000000"><g><path d="M368.78013,124.71585v-6.50402h6.50402v6.50402z"/></g></g><g fill="#000000"><g><path d="M212.68371,131.21987v-6.50402h6.50402v6.50402z"/></g></g><g fill="#000000"><g><path d="M225.69175,131.21987v-6.50402h6.50402v6.50402z"/></g></g><g fill="#000000"><g><path d="M232.19576,131.21987v-6.50402h6.50402v6.50402z"/></g></g><g fill="#000000"><g><path d="M245.2038,131.21987v-6.50402h6.50402v6.50402z"/></g></g><g fill="#000000"><g><path d="M251.70782,131.21987v-6.50402h6.50402v6.50402z"/></g></g><g fill="#000000"><g><path d="M258.21183,131.21987v-6.50402h6.50402v6.50402z"/></g></g><g fill="#000000"><g><path d="M290.73192,131.21987v-6.50402h6.50402v6.50402z"/></g></g><g fill="#000000"><g><path d="M303.73996,131.21987v-6.50402h6.50402v6.50402z"/></g></g><g fill="#000000"><g><path d="M316.74799,131.21987v-6.50402h6.50402v6.50402z"/></g></g><g fill="#000000"><g><path d="M323.25201,131.21987v-6.50402h6.50402v6.50402z"/></g></g><g fill="#000000"><g><path d="M329.75603,131.21987v-6.50402h6.50402v6.50402z"/></g></g><g fill="#000000"><g><path d="M336.26004,131.21987v-6.50402h6.50402v6.50402z"/></g></g><g fill="#000000"><g><path d="M349.26808,131.21987v-6.50402h6.50402v6.50402z"/></g></g><g fill="#000000"><g><path d="M362.27611,131.21987v-6.50402h6.50402v6.50402z"/></g></g><g fill="#000000"><g><path d="M381.78817,131.21987v-6.50402h6.50402v6.50402z"/></g></g><g fill="#000000"><g><path d="M401.30022,131.21987v-6.50402h6.50402v6.50402z"/></g></g><g fill="#000000"><g><path d="M414.30825,131.21987v-6.50402h6.50402v6.50402z"/></g></g><g fill="#000000"><g><path d="M420.81227,131.21987v-6.50402h6.50402v6.50402z"/></g></g><g fill="#000000"><g><path d="M212.68371,137.72389v-6.50402h6.50402v6.50402z"/></g></g><g fill="#000000"><g><path d="M232.19576,137.72389v-6.50402h6.50402v6.50402z"/></g></g><g fill="#000000"><g><path d="M238.69978,137.72389v-6.50402h6.50402v6.50402z"/></g></g><g fill="#000000"><g><path d="M245.2038,137.72389v-6.50402h6.50402v6.50402z"/></g></g><g fill="#000000"><g><path d="M258.21183,137.72389v-6.50402h6.50402v6.50402z"/></g></g><g fill="#000000"><g><path d="M277.72389,137.72389v-6.50402h6.50402v6.50402z"/></g></g><g fill="#000000"><g><path d="M284.2279,137.72389v-6.50402h6.50402v6.50402z"/></g></g><g fill="#000000"><g><path d="M290.73192,137.72389v-6.50402h6.50402v6.50402z"/></g></g><g fill="#000000"><g><path d="M303.73996,137.72389v-6.50402h6.50402v6.50402z"/></g></g><g fill="#000000"><g><path d="M316.74799,137.72389v-6.50402h6.50402v6.50402z"/></g></g><g fill="#000000"><g><path d="M323.25201,137.72389v-6.50402h6.50402v6.50402z"/></g></g><g fill="#000000"><g><path d="M329.75603,137.72389v-6.50402h6.50402v6.50402z"/></g></g><g fill="#000000"><g><path d="M336.26004,137.72389v-6.50402h6.50402v6.50402z"/></g></g><g fill="#000000"><g><path d="M342.76406,137.72389v-6.50402h6.50402v6.50402z"/></g></g><g fill="#000000"><g><path d="M349.26808,137.72389v-6.50402h6.50402v6.50402z"/></g></g><g fill="#000000"><g><path d="M362.27611,137.72389v-6.50402h6.50402v6.50402z"/></g></g><g fill="#000000"><g><path d="M381.78817,137.72389v-6.50402h6.50402v6.50402z"/></g></g><g fill="#000000"><g><path d="M388.29218,137.72389v-6.50402h6.50402v6.50402z"/></g></g><g fill="#000000"><g><path d="M401.30022,137.72389v-6.50402h6.50402v6.50402z"/></g></g><g fill="#000000"><g><path d="M407.80424,137.72389v-6.50402h6.50402v6.50402z"/></g></g><g fill="#000000"><g><path d="M420.81227,137.72389v-6.50402h6.50402v6.50402z"/></g></g><g fill="#000000"><g><path d="M212.68371,144.2279v-6.50402h6.50402v6.50402z"/></g></g><g fill="#000000"><g><path d="M225.69175,144.2279v-6.50402h6.50402v6.50402z"/></g></g><g fill="#000000"><g><path d="M232.19576,144.2279v-6.50402h6.50402v6.50402z"/></g></g><g fill="#000000"><g><path d="M251.70782,144.2279v-6.50402h6.50402v6.50402z"/></g></g><g fill="#000000"><g><path d="M258.21183,144.2279v-6.50402h6.50402v6.50402z"/></g></g><g fill="#000000"><g><path d="M264.71585,144.2279v-6.50402h6.50402v6.50402z"/></g></g><g fill="#000000"><g><path d="M271.21987,144.2279v-6.50402h6.50402v6.50402z"/></g></g><g fill="#000000"><g><path d="M284.2279,144.2279v-6.50402h6.50402v6.50402z"/></g></g><g fill="#000000"><g><path d="M290.73192,144.2279v-6.50402h6.50402v6.50402z"/></g></g><g fill="#000000"><g><path d="M303.73996,144.2279v-6.50402h6.50402v6.50402z"/></g></g><g fill="#000000"><g><path d="M323.25201,144.2279v-6.50402h6.50402v6.50402z"/></g></g><g fill="#000000"><g><path d="M349.26808,144.2279v-6.50402h6.50402v6.50402z"/></g></g><g fill="#000000"><g><path d="M362.27611,144.2279v-6.50402h6.50402v6.50402z"/></g></g><g fill="#000000"><g><path d="M368.78013,144.2279v-6.50402h6.50402v6.50402z"/></g></g><g fill="#000000"><g><path d="M375.28415,144.2279v-6.50402h6.50402v6.50402z"/></g></g><g fill="#000000"><g><path d="M381.78817,144.2279v-6.50402h6.50402v6.50402z"/></g></g><g fill="#000000"><g><path d="M388.29218,144.2279v-6.50402h6.50402v6.50402z"/></g></g><g fill="#000000"><g><path d="M394.7962,144.2279v-6.50402h6.50402v6.50402z"/></g></g><g fill="#000000"><g><path d="M401.30022,144.2279v-6.50402h6.50402v6.50402z"/></g></g><g fill="#000000"><g><path d="M414.30825,144.2279v-6.50402h6.50402v6.50402z"/></g></g><g fill="#000000"><g><path d="M420.81227,144.2279v-6.50402h6.50402v6.50402z"/></g></g><g fill="#000000"><g><path d="M212.68371,150.73192v-6.50402h6.50402v6.50402z"/></g></g><g fill="#000000"><g><path d="M245.2038,150.73192v-6.50402h6.50402v6.50402z"/></g></g><g fill="#000000"><g><path d="M264.71585,150.73192v-6.50402h6.50402v6.50402z"/></g></g><g fill="#000000"><g><path d="M277.72389,150.73192v-6.50402h6.50402v6.50402z"/></g></g><g fill="#000000"><g><path d="M297.23594,150.73192v-6.50402h6.50402v6.50402z"/></g></g><g fill="#000000"><g><path d="M303.73996,150.73192v-6.50402h6.50402v6.50402z"/></g></g><g fill="#000000"><g><path d="M310.24397,150.73192v-6.50402h6.50402v6.50402z"/></g></g><g fill="#000000"><g><path d="M329.75603,150.73192v-6.50402h6.50402v6.50402z"/></g></g><g fill="#000000"><g><path d="M342.76406,150.73192v-6.50402h6.50402v6.50402z"/></g></g><g fill="#000000"><g><path d="M375.28415,150.73192v-6.50402h6.50402v6.50402z"/></g></g><g fill="#000000"><g><path d="M388.29218,150.73192v-6.50402h6.50402v6.50402z"/></g></g><g fill="#000000"><g><path d="M401.30022,150.73192v-6.50402h6.50402v6.50402z"/></g></g><g fill="#000000"><g><path d="M219.18773,157.23594v-6.50402h6.50402v6.50402z"/></g></g><g fill="#000000"><g><path d="M225.69175,157.23594v-6.50402h6.50402v6.50402z"/></g></g><g fill="#000000"><g><path d="M238.69978,157.23594v-6.50402h6.50402v6.50402z"/></g></g><g fill="#000000"><g><path d="M251.70782,157.23594v-6.50402h6.50402v6.50402z"/></g></g><g fill="#000000"><g><path d="M264.71585,157.23594v-6.50402h6.50402v6.50402z"/></g></g><g fill="#000000"><g><path d="M271.21987,157.23594v-6.50402h6.50402v6.50402z"/></g></g><g fill="#000000"><g><path d="M290.73192,157.23594v-6.50402h6.50402v6.50402z"/></g></g><g fill="#000000"><g><path d="M323.25201,157.23594v-6.50402h6.50402v6.50402z"/></g></g><g fill="#000000"><g><path d="M336.26004,157.23594v-6.50402h6.50402v6.50402z"/></g></g><g fill="#000000"><g><path d="M342.76406,157.23594v-6.50402h6.50402v6.50402z"/></g></g><g fill="#000000"><g><path d="M355.7721,157.23594v-6.50402h6.50402v6.50402z"/></g></g><g fill="#000000"><g><path d="M362.27611,157.23594v-6.50402h6.50402v6.50402z"/></g></g><g fill="#000000"><g><path d="M368.78013,157.23594v-6.50402h6.50402v6.50402z"/></g></g><g fill="#000000"><g><path d="M375.28415,157.23594v-6.50402h6.50402v6.50402z"/></g></g><g fill="#000000"><g><path d="M388.29218,157.23594v-6.50402h6.50402v6.50402z"/></g></g><g fill="#000000"><g><path d="M401.30022,157.23594v-6.50402h6.50402v6.50402z"/></g></g><g fill="#000000"><g><path d="M414.30825,157.23594v-6.50402h6.50402v6.50402z"/></g></g><g fill="#000000"><g><path d="M212.68371,163.73996v-6.50402h6.50402v6.50402z"/></g></g><g fill="#000000"><g><path d="M219.18773,163.73996v-6.50402h6.50402v6.50402z"/></g></g><g fill="#000000"><g><path d="M225.69175,163.73996v-6.50402h6.50402v6.50402z"/></g></g><g fill="#000000"><g><path d="M232.19576,163.73996v-6.50402h6.50402v6.50402z"/></g></g><g fill="#000000"><g><path d="M245.2038,163.73996v-6.50402h6.50402v6.50402z"/></g></g><g fill="#000000"><g><path d="M271.21987,163.73996v-6.50402h6.50402v6.50402z"/></g></g><g fill="#000000"><g><path d="M316.74799,163.73996v-6.50402h6.50402v6.50402z"/></g></g><g fill="#000000"><g><path d="M323.25201,163.73996v-6.50402h6.50402v6.50402z"/></g></g><g fill="#000000"><g><path d="M336.26004,163.73996v-6.50402h6.50402v6.50402z"/></g></g><g fill="#000000"><g><path d="M355.7721,163.73996v-6.50402h6.50402v6.50402z"/></g></g><g fill="#000000"><g><path d="M368.78013,163.73996v-6.50402h6.50402v6.50402z"/></g></g><g fill="#000000"><g><path d="M375.28415,163.73996v-6.50402h6.50402v6.50402z"/></g></g><g fill="#000000"><g><path d="M388.29218,163.73996v-6.50402h6.50402v6.50402z"/></g></g><g fill="#000000"><g><path d="M401.30022,163.73996v-6.50402h6.50402v6.50402z"/></g></g><g fill="#000000"><g><path d="M414.30825,163.73996v-6.50402h6.50402v6.50402z"/></g></g><g fill="#000000"><g><path d="M212.68371,170.24397v-6.50402h6.50402v6.50402z"/></g></g><g fill="#000000"><g><path d="M219.18773,170.24397v-6.50402h6.50402v6.50402z"/></g></g><g fill="#000000"><g><path d="M225.69175,170.24397v-6.50402h6.50402v6.50402z"/></g></g><g fill="#000000"><g><path d="M245.2038,170.24397v-6.50402h6.50402v6.50402z"/></g></g><g fill="#000000"><g><path d="M251.70782,170.24397v-6.50402h6.50402v6.50402z"/></g></g><g fill="#000000"><g><path d="M258.21183,170.24397v-6.50402h6.50402v6.50402z"/></g></g><g fill="#000000"><g><path d="M264.71585,170.24397v-6.50402h6.50402v6.50402z"/></g></g><g fill="#000000"><g><path d="M277.72389,170.24397v-6.50402h6.50402v6.50402z"/></g></g><g fill="#000000"><g><path d="M284.2279,170.24397v-6.50402h6.50402v6.50402z"/></g></g><g fill="#000000"><g><path d="M310.24397,170.24397v-6.50402h6.50402v6.50402z"/></g></g><g fill="#000000"><g><path d="M316.74799,170.24397v-6.50402h6.50402v6.50402z"/></g></g><g fill="#000000"><g><path d="M323.25201,170.24397v-6.50402h6.50402v6.50402z"/></g></g><g fill="#000000"><g><path d="M336.26004,170.24397v-6.50402h6.50402v6.50402z"/></g></g><g fill="#000000"><g><path d="M342.76406,170.24397v-6.50402h6.50402v6.50402z"/></g></g><g fill="#000000"><g><path d="M368.78013,170.24397v-6.50402h6.50402v6.50402z"/></g></g><g fill="#000000"><g><path d="M381.78817,170.24397v-6.50402h6.50402v6.50402z"/></g></g><g fill="#000000"><g><path d="M388.29218,170.24397v-6.50402h6.50402v6.50402z"/></g></g><g fill="#000000"><g><path d="M407.80424,170.24397v-6.50402h6.50402v6.50402z"/></g></g><g fill="#000000"><g><path d="M219.18773,176.74799v-6.50402h6.50402v6.50402z"/></g></g><g fill="#000000"><g><path d="M225.69175,176.74799v-6.50402h6.50402v6.50402z"/></g></g><g fill="#000000"><g><path d="M238.69978,176.74799v-6.50402h6.50402v6.50402z"/></g></g><g fill="#000000"><g><path d="M277.72389,176.74799v-6.50402h6.50402v6.50402z"/></g></g><g fill="#000000"><g><path d="M284.2279,176.74799v-6.50402h6.50402v6.50402z"/></g></g><g fill="#000000"><g><path d="M290.73192,176.74799v-6.50402h6.50402v6.50402z"/></g></g><g fill="#000000"><g><path d="M303.73996,176.74799v-6.50402h6.50402v6.50402z"/></g></g><g fill="#000000"><g><path d="M316.74799,176.74799v-6.50402h6.50402v6.50402z"/></g></g><g fill="#000000"><g><path d="M342.76406,176.74799v-6.50402h6.50402v6.50402z"/></g></g><g fill="#000000"><g><path d="M349.26808,176.74799v-6.50402h6.50402v6.50402z"/></g></g><g fill="#000000"><g><path d="M375.28415,176.74799v-6.50402h6.50402v6.50402z"/></g></g><g fill="#000000"><g><path d="M381.78817,176.74799v-6.50402h6.50402v6.50402z"/></g></g><g fill="#000000"><g><path d="M394.7962,176.74799v-6.50402h6.50402v6.50402z"/></g></g><g fill="#000000"><g><path d="M407.80424,176.74799v-6.50402h6.50402v6.50402z"/></g></g><g fill="#000000"><g><path d="M212.68371,183.25201v-6.50402h6.50402v6.50402z"/></g></g><g fill="#000000"><g><path d="M219.18773,183.25201v-6.50402h6.50402v6.50402z"/></g></g><g fill="#000000"><g><path d="M232.19576,183.25201v-6.50402h6.50402v6.50402z"/></g></g><g fill="#000000"><g><path d="M245.2038,183.25201v-6.50402h6.50402v6.50402z"/></g></g><g fill="#000000"><g><path d="M251.70782,183.25201v-6.50402h6.50402v6.50402z"/></g></g><g fill="#000000"><g><path d="M264.71585,183.25201v-6.50402h6.50402v6.50402z"/></g></g><g fill="#000000"><g><path d="M277.72389,183.25201v-6.50402h6.50402v6.50402z"/></g></g><g fill="#000000"><g><path d="M284.2279,183.25201v-6.50402h6.50402v6.50402z"/></g></g><g fill="#000000"><g><path d="M303.73996,183.25201v-6.50402h6.50402v6.50402z"/></g></g><g fill="#000000"><g><path d="M310.24397,183.25201v-6.50402h6.50402v6.50402z"/></g></g><g fill="#000000"><g><path d="M329.75603,183.25201v-6.50402h6.50402v6.50402z"/></g></g><g fill="#000000"><g><path d="M342.76406,183.25201v-6.50402h6.50402v6.50402z"/></g></g><g fill="#000000"><g><path d="M349.26808,183.25201v-6.50402h6.50402v6.50402z"/></g></g><g fill="#000000"><g><path d="M355.7721,183.25201v-6.50402h6.50402v6.50402z"/></g></g><g fill="#000000"><g><path d="M362.27611,183.25201v-6.50402h6.50402v6.50402z"/></g></g><g fill="#000000"><g><path d="M375.28415,183.25201v-6.50402h6.50402v6.50402z"/></g></g><g fill="#000000"><g><path d="M381.78817,183.25201v-6.50402h6.50402v6.50402z"/></g></g><g fill="#000000"><g><path d="M394.7962,183.25201v-6.50402h6.50402v6.50402z"/></g></g><g fill="#000000"><g><path d="M401.30022,183.25201v-6.50402h6.50402v6.50402z"/></g></g><g fill="#000000"><g><path d="M407.80424,183.25201v-6.50402h6.50402v6.50402z"/></g></g><g fill="#000000"><g><path d="M212.68371,189.75603v-6.50402h6.50402v6.50402z"/></g></g><g fill="#000000"><g><path d="M238.69978,189.75603v-6.50402h6.50402v6.50402z"/></g></g><g fill="#000000"><g><path d="M258.21183,189.75603v-6.50402h6.50402v6.50402z"/></g></g><g fill="#000000"><g><path d="M271.21987,189.75603v-6.50402h6.50402v6.50402z"/></g></g><g fill="#000000"><g><path d="M284.2279,189.75603v-6.50402h6.50402v6.50402z"/></g></g><g fill="#000000"><g><path d="M297.23594,189.75603v-6.50402h6.50402v6.50402z"/></g></g><g fill="#000000"><g><path d="M303.73996,189.75603v-6.50402h6.50402v6.50402z"/></g></g><g fill="#000000"><g><path d="M310.24397,189.75603v-6.50402h6.50402v6.50402z"/></g></g><g fill="#000000"><g><path d="M316.74799,189.75603v-6.50402h6.50402v6.50402z"/></g></g><g fill="#000000"><g><path d="M323.25201,189.75603v-6.50402h6.50402v6.50402z"/></g></g><g fill="#000000"><g><path d="M329.75603,189.75603v-6.50402h6.50402v6.50402z"/></g></g><g fill="#000000"><g><path d="M342.76406,189.75603v-6.50402h6.50402v6.50402z"/></g></g><g fill="#000000"><g><path d="M355.7721,189.75603v-6.50402h6.50402v6.50402z"/></g></g><g fill="#000000"><g><path d="M362.27611,189.75603v-6.50402h6.50402v6.50402z"/></g></g><g fill="#000000"><g><path d="M368.78013,189.75603v-6.50402h6.50402v6.50402z"/></g></g><g fill="#000000"><g><path d="M375.28415,189.75603v-6.50402h6.50402v6.50402z"/></g></g><g fill="#000000"><g><path d="M381.78817,189.75603v-6.50402h6.50402v6.50402z"/></g></g><g fill="#000000"><g><path d="M394.7962,189.75603v-6.50402h6.50402v6.50402z"/></g></g><g fill="#000000"><g><path d="M401.30022,189.75603v-6.50402h6.50402v6.50402z"/></g></g><g fill="#000000"><g><path d="M420.81227,189.75603v-6.50402h6.50402v6.50402z"/></g></g><g fill="#000000"><g><path d="M219.18773,196.26004v-6.50402h6.50402v6.50402z"/></g></g><g fill="#000000"><g><path d="M225.69175,196.26004v-6.50402h6.50402v6.50402z"/></g></g><g fill="#000000"><g><path d="M232.19576,196.26004v-6.50402h6.50402v6.50402z"/></g></g><g fill="#000000"><g><path d="M238.69978,196.26004v-6.50402h6.50402v6.50402z"/></g></g><g fill="#000000"><g><path d="M251.70782,196.26004v-6.50402h6.50402v6.50402z"/></g></g><g fill="#000000"><g><path d="M264.71585,196.26004v-6.50402h6.50402v6.50402z"/></g></g><g fill="#000000"><g><path d="M271.21987,196.26004v-6.50402h6.50402v6.50402z"/></g></g><g fill="#000000"><g><path d="M290.73192,196.26004v-6.50402h6.50402v6.50402z"/></g></g><g fill="#000000"><g><path d="M303.73996,196.26004v-6.50402h6.50402v6.50402z"/></g></g><g fill="#000000"><g><path d="M310.24397,196.26004v-6.50402h6.50402v6.50402z"/></g></g><g fill="#000000"><g><path d="M323.25201,196.26004v-6.50402h6.50402v6.50402z"/></g></g><g fill="#000000"><g><path d="M329.75603,196.26004v-6.50402h6.50402v6.50402z"/></g></g><g fill="#000000"><g><path d="M368.78013,196.26004v-6.50402h6.50402v6.50402z"/></g></g><g fill="#000000"><g><path d="M375.28415,196.26004v-6.50402h6.50402v6.50402z"/></g></g><g fill="#000000"><g><path d="M388.29218,196.26004v-6.50402h6.50402v6.50402z"/></g></g><g fill="#000000"><g><path d="M394.7962,196.26004v-6.50402h6.50402v6.50402z"/></g></g><g fill="#000000"><g><path d="M407.80424,196.26004v-6.50402h6.50402v6.50402z"/></g></g><g fill="#000000"><g><path d="M414.30825,196.26004v-6.50402h6.50402v6.50402z"/></g></g><g fill="#000000"><g><path d="M212.68371,202.76406v-6.50402h6.50402v6.50402z"/></g></g><g fill="#000000"><g><path d="M225.69175,202.76406v-6.50402h6.50402v6.50402z"/></g></g><g fill="#000000"><g><path d="M232.19576,202.76406v-6.50402h6.50402v6.50402z"/></g></g><g fill="#000000"><g><path d="M245.2038,202.76406v-6.50402h6.50402v6.50402z"/></g></g><g fill="#000000"><g><path d="M264.71585,202.76406v-6.50402h6.50402v6.50402z"/></g></g><g fill="#000000"><g><path d="M271.21987,202.76406v-6.50402h6.50402v6.50402z"/></g></g><g fill="#000000"><g><path d="M277.72389,202.76406v-6.50402h6.50402v6.50402z"/></g></g><g fill="#000000"><g><path d="M290.73192,202.76406v-6.50402h6.50402v6.50402z"/></g></g><g fill="#000000"><g><path d="M303.73996,202.76406v-6.50402h6.50402v6.50402z"/></g></g><g fill="#000000"><g><path d="M310.24397,202.76406v-6.50402h6.50402v6.50402z"/></g></g><g fill="#000000"><g><path d="M316.74799,202.76406v-6.50402h6.50402v6.50402z"/></g></g><g fill="#000000"><g><path d="M323.25201,202.76406v-6.50402h6.50402v6.50402z"/></g></g><g fill="#000000"><g><path d="M329.75603,202.76406v-6.50402h6.50402v6.50402z"/></g></g><g fill="#000000"><g><path d="M336.26004,202.76406v-6.50402h6.50402v6.50402z"/></g></g><g fill="#000000"><g><path d="M342.76406,202.76406v-6.50402h6.50402v6.50402z"/></g></g><g fill="#000000"><g><path d="M368.78013,202.76406v-6.50402h6.50402v6.50402z"/></g></g><g fill="#000000"><g><path d="M375.28415,202.76406v-6.50402h6.50402v6.50402z"/></g></g><g fill="#000000"><g><path d="M381.78817,202.76406v-6.50402h6.50402v6.50402z"/></g></g><g fill="#000000"><g><path d="M394.7962,202.76406v-6.50402h6.50402v6.50402z"/></g></g><g fill="#000000"><g><path d="M420.81227,202.76406v-6.50402h6.50402v6.50402z"/></g></g><g fill="#000000"><g><path d="M219.18773,209.26808v-6.50402h6.50402v6.50402z"/></g></g><g fill="#000000"><g><path d="M225.69175,209.26808v-6.50402h6.50402v6.50402z"/></g></g><g fill="#000000"><g><path d="M251.70782,209.26808v-6.50402h6.50402v6.50402z"/></g></g><g fill="#000000"><g><path d="M258.21183,209.26808v-6.50402h6.50402v6.50402z"/></g></g><g fill="#000000"><g><path d="M264.71585,209.26808v-6.50402h6.50402v6.50402z"/></g></g><g fill="#000000"><g><path d="M277.72389,209.26808v-6.50402h6.50402v6.50402z"/></g></g><g fill="#000000"><g><path d="M290.73192,209.26808v-6.50402h6.50402v6.50402z"/></g></g><g fill="#000000"><g><path d="M297.23594,209.26808v-6.50402h6.50402v6.50402z"/></g></g><g fill="#000000"><g><path d="M310.24397,209.26808v-6.50402h6.50402v6.50402z"/></g></g><g fill="#000000"><g><path d="M323.25201,209.26808v-6.50402h6.50402v6.50402z"/></g></g><g fill="#000000"><g><path d="M336.26004,209.26808v-6.50402h6.50402v6.50402z"/></g></g><g fill="#000000"><g><path d="M349.26808,209.26808v-6.50402h6.50402v6.50402z"/></g></g><g fill="#000000"><g><path d="M401.30022,209.26808v-6.50402h6.50402v6.50402z"/></g></g><g fill="#000000"><g><path d="M407.80424,209.26808v-6.50402h6.50402v6.50402z"/></g></g><g fill="#000000"><g><path d="M414.30825,209.26808v-6.50402h6.50402v6.50402z"/></g></g><g fill="#000000"><g><path d="M420.81227,209.26808v-6.50402h6.50402v6.50402z"/></g></g><g fill="#000000"><g><path d="M212.68371,215.7721v-6.50402h6.50402v6.50402z"/></g></g><g fill="#000000"><g><path d="M225.69175,215.7721v-6.50402h6.50402v6.50402z"/></g></g><g fill="#000000"><g><path d="M245.2038,215.7721v-6.50402h6.50402v6.50402z"/></g></g><g fill="#000000"><g><path d="M264.71585,215.7721v-6.50402h6.50402v6.50402z"/></g></g><g fill="#000000"><g><path d="M271.21987,215.7721v-6.50402h6.50402v6.50402z"/></g></g><g fill="#000000"><g><path d="M284.2279,215.7721v-6.50402h6.50402v6.50402z"/></g></g><g fill="#000000"><g><path d="M310.24397,215.7721v-6.50402h6.50402v6.50402z"/></g></g><g fill="#000000"><g><path d="M329.75603,215.7721v-6.50402h6.50402v6.50402z"/></g></g><g fill="#000000"><g><path d="M336.26004,215.7721v-6.50402h6.50402v6.50402z"/></g></g><g fill="#000000"><g><path d="M342.76406,215.7721v-6.50402h6.50402v6.50402z"/></g></g><g fill="#000000"><g><path d="M349.26808,215.7721v-6.50402h6.50402v6.50402z"/></g></g><g fill="#000000"><g><path d="M362.27611,215.7721v-6.50402h6.50402v6.50402z"/></g></g><g fill="#000000"><g><path d="M381.78817,215.7721v-6.50402h6.50402v6.50402z"/></g></g><g fill="#000000"><g><path d="M388.29218,215.7721v-6.50402h6.50402v6.50402z"/></g></g><g fill="#000000"><g><path d="M401.30022,215.7721v-6.50402h6.50402v6.50402z"/></g></g><g fill="#000000"><g><path d="M420.81227,215.7721v-6.50402h6.50402v6.50402z"/></g></g><g fill="#000000"><g><path d="M225.69175,222.27611v-6.50402h6.50402v6.50402z"/></g></g><g fill="#000000"><g><path d="M232.19576,222.27611v-6.50402h6.50402v6.50402z"/></g></g><g fill="#000000"><g><path d="M251.70782,222.27611v-6.50402h6.50402v6.50402z"/></g></g><g fill="#000000"><g><path d="M258.21183,222.27611v-6.50402h6.50402v6.50402z"/></g></g><g fill="#000000"><g><path d="M264.71585,222.27611v-6.50402h6.50402v6.50402z"/></g></g><g fill="#000000"><g><path d="M271.21987,222.27611v-6.50402h6.50402v6.50402z"/></g></g><g fill="#000000"><g><path d="M277.72389,222.27611v-6.50402h6.50402v6.50402z"/></g></g><g fill="#000000"><g><path d="M284.2279,222.27611v-6.50402h6.50402v6.50402z"/></g></g><g fill="#000000"><g><path d="M303.73996,222.27611v-6.50402h6.50402v6.50402z"/></g></g><g fill="#000000"><g><path d="M316.74799,222.27611v-6.50402h6.50402v6.50402z"/></g></g><g fill="#000000"><g><path d="M323.25201,222.27611v-6.50402h6.50402v6.50402z"/></g></g><g fill="#000000"><g><path d="M329.75603,222.27611v-6.50402h6.50402v6.50402z"/></g></g><g fill="#000000"><g><path d="M342.76406,222.27611v-6.50402h6.50402v6.50402z"/></g></g><g fill="#000000"><g><path d="M362.27611,222.27611v-6.50402h6.50402v6.50402z"/></g></g><g fill="#000000"><g><path d="M368.78013,222.27611v-6.50402h6.50402v6.50402z"/></g></g><g fill="#000000"><g><path d="M375.28415,222.27611v-6.50402h6.50402v6.50402z"/></g></g><g fill="#000000"><g><path d="M388.29218,222.27611v-6.50402h6.50402v6.50402z"/></g></g><g fill="#000000"><g><path d="M394.7962,222.27611v-6.50402h6.50402v6.50402z"/></g></g><g fill="#000000"><g><path d="M401.30022,222.27611v-6.50402h6.50402v6.50402z"/></g></g><g fill="#000000"><g><path d="M407.80424,222.27611v-6.50402h6.50402v6.50402z"/></g></g><g fill="#000000"><g><path d="M414.30825,222.27611v-6.50402h6.50402v6.50402z"/></g></g><g fill="#000000"><g><path d="M420.81227,222.27611v-6.50402h6.50402v6.50402z"/></g></g><g fill="#000000"><g><path d="M219.18773,228.78013v-6.50402h6.50402v6.50402z"/></g></g><g fill="#000000"><g><path d="M271.21987,228.78013v-6.50402h6.50402v6.50402z"/></g></g><g fill="#000000"><g><path d="M277.72389,228.78013v-6.50402h6.50402v6.50402z"/></g></g><g fill="#000000"><g><path d="M297.23594,228.78013v-6.50402h6.50402v6.50402z"/></g></g><g fill="#000000"><g><path d="M303.73996,228.78013v-6.50402h6.50402v6.50402z"/></g></g><g fill="#000000"><g><path d="M316.74799,228.78013v-6.50402h6.50402v6.50402z"/></g></g><g fill="#000000"><g><path d="M336.26004,228.78013v-6.50402h6.50402v6.50402z"/></g></g><g fill="#000000"><g><path d="M342.76406,228.78013v-6.50402h6.50402v6.50402z"/></g></g><g fill="#000000"><g><path d="M362.27611,228.78013v-6.50402h6.50402v6.50402z"/></g></g><g fill="#000000"><g><path d="M368.78013,228.78013v-6.50402h6.50402v6.50402z"/></g></g><g fill="#000000"><g><path d="M375.28415,228.78013v-6.50402h6.50402v6.50402z"/></g></g><g fill="#000000"><g><path d="M388.29218,228.78013v-6.50402h6.50402v6.50402z"/></g></g><g fill="#000000"><g><path d="M401.30022,228.78013v-6.50402h6.50402v6.50402z"/></g></g><g fill="#000000"><g><path d="M414.30825,228.78013v-6.50402h6.50402v6.50402z"/></g></g><g fill="#000000"><g><path d="M212.68371,235.28415v-6.50402h6.50402v6.50402z"/></g></g><g fill="#000000"><g><path d="M225.69175,235.28415v-6.50402h6.50402v6.50402z"/></g></g><g fill="#000000"><g><path d="M245.2038,235.28415v-6.50402h6.50402v6.50402z"/></g></g><g fill="#000000"><g><path d="M251.70782,235.28415v-6.50402h6.50402v6.50402z"/></g></g><g fill="#000000"><g><path d="M258.21183,235.28415v-6.50402h6.50402v6.50402z"/></g></g><g fill="#000000"><g><path d="M264.71585,235.28415v-6.50402h6.50402v6.50402z"/></g></g><g fill="#000000"><g><path d="M271.21987,235.28415v-6.50402h6.50402v6.50402z"/></g></g><g fill="#000000"><g><path d="M277.72389,235.28415v-6.50402h6.50402v6.50402z"/></g></g><g fill="#000000"><g><path d="M284.2279,235.28415v-6.50402h6.50402v6.50402z"/></g></g><g fill="#000000"><g><path d="M290.73192,235.28415v-6.50402h6.50402v6.50402z"/></g></g><g fill="#000000"><g><path d="M303.73996,235.28415v-6.50402h6.50402v6.50402z"/></g></g><g fill="#000000"><g><path d="M310.24397,235.28415v-6.50402h6.50402v6.50402z"/></g></g><g fill="#000000"><g><path d="M323.25201,235.28415v-6.50402h6.50402v6.50402z"/></g></g><g fill="#000000"><g><path d="M336.26004,235.28415v-6.50402h6.50402v6.50402z"/></g></g><g fill="#000000"><g><path d="M342.76406,235.28415v-6.50402h6.50402v6.50402z"/></g></g><g fill="#000000"><g><path d="M355.7721,235.28415v-6.50402h6.50402v6.50402z"/></g></g><g fill="#000000"><g><path d="M368.78013,235.28415v-6.50402h6.50402v6.50402z"/></g></g><g fill="#000000"><g><path d="M375.28415,235.28415v-6.50402h6.50402v6.50402z"/></g></g><g fill="#000000"><g><path d="M381.78817,235.28415v-6.50402h6.50402v6.50402z"/></g></g><g fill="#000000"><g><path d="M388.29218,235.28415v-6.50402h6.50402v6.50402z"/></g></g><g fill="#000000"><g><path d="M394.7962,235.28415v-6.50402h6.50402v6.50402z"/></g></g><g fill="#000000"><g><path d="M420.81227,235.28415v-6.50402h6.50402v6.50402z"/></g></g><g fill="#000000"><g><path d="M264.71585,241.78817v-6.50402h6.50402v6.50402z"/></g></g><g fill="#000000"><g><path d="M271.21987,241.78817v-6.50402h6.50402v6.50402z"/></g></g><g fill="#000000"><g><path d="M277.72389,241.78817v-6.50402h6.50402v6.50402z"/></g></g><g fill="#000000"><g><path d="M284.2279,241.78817v-6.50402h6.50402v6.50402z"/></g></g><g fill="#000000"><g><path d="M303.73996,241.78817v-6.50402h6.50402v6.50402z"/></g></g><g fill="#000000"><g><path d="M310.24397,241.78817v-6.50402h6.50402v6.50402z"/></g></g><g fill="#000000"><g><path d="M316.74799,241.78817v-6.50402h6.50402v6.50402z"/></g></g><g fill="#000000"><g><path d="M336.26004,241.78817v-6.50402h6.50402v6.50402z"/></g></g><g fill="#000000"><g><path d="M368.78013,241.78817v-6.50402h6.50402v6.50402z"/></g></g><g fill="#000000"><g><path d="M394.7962,241.78817v-6.50402h6.50402v6.50402z"/></g></g><g fill="#000000"><g><path d="M401.30022,241.78817v-6.50402h6.50402v6.50402z"/></g></g><g fill="#000000"><g><path d="M264.71585,248.29218v-6.50402h6.50402v6.50402z"/></g></g><g fill="#000000"><g><path d="M277.72389,248.29218v-6.50402h6.50402v6.50402z"/></g></g><g fill="#000000"><g><path d="M303.73996,248.29218v-6.50402h6.50402v6.50402z"/></g></g><g fill="#000000"><g><path d="M323.25201,248.29218v-6.50402h6.50402v6.50402z"/></g></g><g fill="#000000"><g><path d="M329.75603,248.29218v-6.50402h6.50402v6.50402z"/></g></g><g fill="#000000"><g><path d="M336.26004,248.29218v-6.50402h6.50402v6.50402z"/></g></g><g fill="#000000"><g><path d="M355.7721,248.29218v-6.50402h6.50402v6.50402z"/></g></g><g fill="#000000"><g><path d="M362.27611,248.29218v-6.50402h6.50402v6.50402z"/></g></g><g fill="#000000"><g><path d="M368.78013,248.29218v-6.50402h6.50402v6.50402z"/></g></g><g fill="#000000"><g><path d="M381.78817,248.29218v-6.50402h6.50402v6.50402z"/></g></g><g fill="#000000"><g><path d="M394.7962,248.29218v-6.50402h6.50402v6.50402z"/></g></g><g fill="#000000"><g><path d="M264.71585,254.7962v-6.50402h6.50402v6.50402z"/></g></g><g fill="#000000"><g><path d="M284.2279,254.7962v-6.50402h6.50402v6.50402z"/></g></g><g fill="#000000"><g><path d="M303.73996,254.7962v-6.50402h6.50402v6.50402z"/></g></g><g fill="#000000"><g><path d="M316.74799,254.7962v-6.50402h6.50402v6.50402z"/></g></g><g fill="#000000"><g><path d="M349.26808,254.7962v-6.50402h6.50402v6.50402z"/></g></g><g fill="#000000"><g><path d="M355.7721,254.7962v-6.50402h6.50402v6.50402z"/></g></g><g fill="#000000"><g><path d="M362.27611,254.7962v-6.50402h6.50402v6.50402z"/></g></g><g fill="#000000"><g><path d="M368.78013,254.7962v-6.50402h6.50402v6.50402z"/></g></g><g fill="#000000"><g><path d="M394.7962,254.7962v-6.50402h6.50402v6.50402z"/></g></g><g fill="#000000"><g><path d="M401.30022,254.7962v-6.50402h6.50402v6.50402z"/></g></g><g fill="#000000"><g><path d="M407.80424,254.7962v-6.50402h6.50402v6.50402z"/></g></g><g fill="#000000"><g><path d="M271.21987,261.30022v-6.50402h6.50402v6.50402z"/></g></g><g fill="#000000"><g><path d="M284.2279,261.30022v-6.50402h6.50402v6.50402z"/></g></g><g fill="#000000"><g><path d="M290.73192,261.30022v-6.50402h6.50402v6.50402z"/></g></g><g fill="#000000"><g><path d="M297.23594,261.30022v-6.50402h6.50402v6.50402z"/></g></g><g fill="#000000"><g><path d="M310.24397,261.30022v-6.50402h6.50402v6.50402z"/></g></g><g fill="#000000"><g><path d="M323.25201,261.30022v-6.50402h6.50402v6.50402z"/></g></g><g fill="#000000"><g><path d="M342.76406,261.30022v-6.50402h6.50402v6.50402z"/></g></g><g fill="#000000"><g><path d="M349.26808,261.30022v-6.50402h6.50402v6.50402z"/></g></g><g fill="#000000"><g><path d="M355.7721,261.30022v-6.50402h6.50402v6.50402z"/></g></g><g fill="#000000"><g><path d="M362.27611,261.30022v-6.50402h6.50402v6.50402z"/></g></g><g fill="#000000"><g><path d="M368.78013,261.30022v-6.50402h6.50402v6.50402z"/></g></g><g fill="#000000"><g><path d="M375.28415,261.30022v-6.50402h6.50402v6.50402z"/></g></g><g fill="#000000"><g><path d="M381.78817,261.30022v-6.50402h6.50402v6.50402z"/></g></g><g fill="#000000"><g><path d="M388.29218,261.30022v-6.50402h6.50402v6.50402z"/></g></g><g fill="#000000"><g><path d="M394.7962,261.30022v-6.50402h6.50402v6.50402z"/></g></g><g fill="#000000"><g><path d="M407.80424,261.30022v-6.50402h6.50402v6.50402z"/></g></g><g fill="#000000"><g><path d="M414.30825,261.30022v-6.50402h6.50402v6.50402z"/></g></g><g fill="#000000"><g><path d="M420.81227,261.30022v-6.50402h6.50402v6.50402z"/></g></g><g fill="#000000"><g><path d="M264.71585,267.80424v-6.50402h6.50402v6.50402z"/></g></g><g fill="#000000"><g><path d="M284.2279,267.80424v-6.50402h6.50402v6.50402z"/></g></g><g fill="#000000"><g><path d="M290.73192,267.80424v-6.50402h6.50402v6.50402z"/></g></g><g fill="#000000"><g><path d="M297.23594,267.80424v-6.50402h6.50402v6.50402z"/></g></g><g fill="#000000"><g><path d="M323.25201,267.80424v-6.50402h6.50402v6.50402z"/></g></g><g fill="#000000"><g><path d="M342.76406,267.80424v-6.50402h6.50402v6.50402z"/></g></g><g fill="#000000"><g><path d="M349.26808,267.80424v-6.50402h6.50402v6.50402z"/></g></g><g fill="#000000"><g><path d="M362.27611,267.80424v-6.50402h6.50402v6.50402z"/></g></g><g fill="#000000"><g><path d="M388.29218,267.80424v-6.50402h6.50402v6.50402z"/></g></g><g fill="#000000"><g><path d="M407.80424,267.80424v-6.50402h6.50402v6.50402z"/></g></g><g fill="#000000"><g><path d="M420.81227,267.80424v-6.50402h6.50402v6.50402z"/></g></g><g fill="#000000"><g><path d="M264.71585,274.30825v-6.50402h6.50402v6.50402z"/></g></g><g fill="#000000"><g><path d="M271.21987,274.30825v-6.50402h6.50402v6.50402z"/></g></g><g fill="#000000"><g><path d="M277.72389,274.30825v-6.50402h6.50402v6.50402z"/></g></g><g fill="#000000"><g><path d="M284.2279,274.30825v-6.50402h6.50402v6.50402z"/></g></g><g fill="#000000"><g><path d="M329.75603,274.30825v-6.50402h6.50402v6.50402z"/></g></g><g fill="#000000"><g><path d="M342.76406,274.30825v-6.50402h6.50402v6.50402z"/></g></g><g fill="#000000"><g><path d="M355.7721,274.30825v-6.50402h6.50402v6.50402z"/></g></g><g fill="#000000"><g><path d="M362.27611,274.30825v-6.50402h6.50402v6.50402z"/></g></g><g fill="#000000"><g><path d="M368.78013,274.30825v-6.50402h6.50402v6.50402z"/></g></g><g fill="#000000"><g><path d="M381.78817,274.30825v-6.50402h6.50402v6.50402z"/></g></g><g fill="#000000"><g><path d="M388.29218,274.30825v-6.50402h6.50402v6.50402z"/></g></g><g fill="#000000"><g><path d="M401.30022,274.30825v-6.50402h6.50402v6.50402z"/></g></g><g fill="#000000"><g><path d="M407.80424,274.30825v-6.50402h6.50402v6.50402z"/></g></g><g fill="#000000"><g><path d="M277.72389,280.81227v-6.50402h6.50402v6.50402z"/></g></g><g fill="#000000"><g><path d="M284.2279,280.81227v-6.50402h6.50402v6.50402z"/></g></g><g fill="#000000"><g><path d="M310.24397,280.81227v-6.50402h6.50402v6.50402z"/></g></g><g fill="#000000"><g><path d="M316.74799,280.81227v-6.50402h6.50402v6.50402z"/></g></g><g fill="#000000"><g><path d="M323.25201,280.81227v-6.50402h6.50402v6.50402z"/></g></g><g fill="#000000"><g><path d="M329.75603,280.81227v-6.50402h6.50402v6.50402z"/></g></g><g fill="#000000"><g><path d="M336.26004,280.81227v-6.50402h6.50402v6.50402z"/></g></g><g fill="#000000"><g><path d="M362.27611,280.81227v-6.50402h6.50402v6.50402z"/></g></g><g fill="#000000"><g><path d="M368.78013,280.81227v-6.50402h6.50402v6.50402z"/></g></g><g fill="#000000"><g><path d="M375.28415,280.81227v-6.50402h6.50402v6.50402z"/></g></g><g fill="#000000"><g><path d="M388.29218,280.81227v-6.50402h6.50402v6.50402z"/></g></g><g fill="#000000"><g><path d="M394.7962,280.81227v-6.50402h6.50402v6.50402z"/></g></g><g fill="#000000"><g><path d="M420.81227,280.81227v-6.50402h6.50402v6.50402z"/></g></g><g fill="#000000"><g><path d="M264.71585,287.31629v-6.50402h6.50402v6.50402z"/></g></g><g fill="#000000"><g><path d="M271.21987,287.31629v-6.50402h6.50402v6.50402z"/></g></g><g fill="#000000"><g><path d="M277.72389,287.31629v-6.50402h6.50402v6.50402z"/></g></g><g fill="#000000"><g><path d="M290.73192,287.31629v-6.50402h6.50402v6.50402z"/></g></g><g fill="#000000"><g><path d="M297.23594,287.31629v-6.50402h6.50402v6.50402z"/></g></g><g fill="#000000"><g><path d="M310.24397,287.31629v-6.50402h6.50402v6.50402z"/></g></g><g fill="#000000"><g><path d="M316.74799,287.31629v-6.50402h6.50402v6.50402z"/></g></g><g fill="#000000"><g><path d="M323.25201,287.31629v-6.50402h6.50402v6.50402z"/></g></g><g fill="#000000"><g><path d="M329.75603,287.31629v-6.50402h6.50402v6.50402z"/></g></g><g fill="#000000"><g><path d="M336.26004,287.31629v-6.50402h6.50402v6.50402z"/></g></g><g fill="#000000"><g><path d="M342.76406,287.31629v-6.50402h6.50402v6.50402z"/></g></g><g fill="#000000"><g><path d="M349.26808,287.31629v-6.50402h6.50402v6.50402z"/></g></g><g fill="#000000"><g><path d="M362.27611,287.31629v-6.50402h6.50402v6.50402z"/></g></g><g fill="#000000"><g><path d="M375.28415,287.31629v-6.50402h6.50402v6.50402z"/></g></g><g fill="#000000"><g><path d="M381.78817,287.31629v-6.50402h6.50402v6.50402z"/></g></g><g fill="#000000"><g><path d="M394.7962,287.31629v-6.50402h6.50402v6.50402z"/></g></g><g fill="#000000"><g><path d="M407.80424,287.31629v-6.50402h6.50402v6.50402z"/></g></g><g><g><g><path d="M219.51293,111.38262v-31.86969h31.86969v31.86969z" fill="none"/><path d="M258.21183,72.68371v6.82922v31.86969v6.82922h-6.82922h-31.86969h-6.82922v-6.82922v-31.86969v-6.82922h6.82922h31.86969zM251.38262,79.51293h-31.86969v31.86969h31.86969z" fill="#000000"/></g></g></g><g><g><g><path d="M388.61738,111.38262v-31.86969h31.86969v31.86969z" fill="none"/><path d="M427.31629,72.68371v6.82922v31.86969v6.82922h-6.82922h-31.86969h-6.82922v-6.82922v-31.86969v-6.82922h6.82922h31.86969zM420.48707,79.51293h-31.86969v31.86969h31.86969z" fill="#000000"/></g></g></g><g><g><g><path d="M219.51293,280.48707v-31.86969h31.86969v31.86969z" fill="none"/><path d="M258.21183,241.78817v6.82922v31.86969v6.82922h-6.82922h-31.86969h-6.82922v-6.82922v-31.86969v-6.82922h6.82922h31.86969zM251.38262,248.61738h-31.86969v31.86969h31.86969z" fill="#000000"/></g></g></g><g fill="#000000"><g><path d="M225.69175,105.2038v-19.51205h19.51205v19.51205z"/></g></g><g fill="#000000"><g><path d="M394.7962,105.2038v-19.51205h19.51205v19.51205z"/></g></g><g fill="#000000"><g><path d="M225.69175,274.30825v-19.51205h19.51205v19.51205z"/></g></g></g></g></g></g></svg>