<svg version="1.1" xmlns="http://www.w3.org/2000/svg" xmlns:xlink="http://www.w3.org/1999/xlink" width="24.66667" height="24.66667" viewBox="0,0,24.66667,24.66667"><g transform="translate(-307.66667,-167.66665)"><g data-paper-data="{&quot;isPaintingLayer&quot;:true}" fill-rule="nonzero" stroke="none" stroke-linecap="butt" stroke-linejoin="miter" stroke-miterlimit="10" stroke-dasharray="" stroke-dashoffset="0" style="mix-blend-mode: normal"><path d="M307.66667,192.33333v-24.66667h24.66667v24.66667z" fill="#ffffff" stroke-width="0"/><path d="M328.448,188.452v-6.286c0,-3.085 -0.666,-5.455 -4.267,-5.455c-1.733,0 -2.893,0.95 -3.37,1.85h-0.046v-1.561h-3.414v11.452h3.554v-5.667c0,-1.494 0.283,-2.939 2.136,-2.939c1.825,0 1.852,1.709 1.852,3.037v5.569h3.554zM315.401,173.368c0,-1.138 -0.924,-2.063 -2.064,-2.063c-1.143,0 -2.063,0.925 -2.063,2.063c0,1.139 0.919,2.065 2.063,2.065c1.139,0 2.064,-0.926 2.064,-2.065zM315.119,177h-3.564v11.452h3.564zM330.222,168c0.978,0 1.778,0.774 1.778,1.729v20.542c0,0.956 -0.8,1.729 -1.778,1.729h-20.451c-0.979,0 -1.771,-0.773 -1.771,-1.729v-20.542c0,-0.955 0.792,-1.729 1.771,-1.729h20.454z" fill="#000000" stroke-width="1"/></g></g></svg>