<svg version="1.1" xmlns="http://www.w3.org/2000/svg" xmlns:xlink="http://www.w3.org/1999/xlink" width="437.33333" height="37.44444" viewBox="0,0,437.33333,37.44444"><g transform="translate(-100.16667,-158.05556)"><g data-paper-data="{&quot;isPaintingLayer&quot;:true}" fill-rule="nonzero" stroke-linecap="butt" stroke-linejoin="miter" stroke-miterlimit="10" stroke-dasharray="" stroke-dashoffset="0" style="mix-blend-mode: normal"><g><path d="M110.00001,195.5v-31h420v31c0,0 -226.61248,0 -304,0c-47.80388,0 -115.99999,0 -115.99999,0z" fill="#000000" stroke="none" stroke-width="0"/><path d="M101.66668,189.88889v-30.33333h78v30.33333z" fill="#454545" stroke="#cbcbcb" stroke-width="3"/><path d="M179.66667,189.88889v-28.73333l0.33334,28.73333h-76.73334z" fill="none" stroke="#161616" stroke-width="3"/></g><g data-paper-data="{&quot;index&quot;:null}" stroke-width="3"><path d="M458.00001,189.88889v-30.33333h78v30.33333z" fill="#454545" stroke="#cbcbcb"/><path d="M534.40002,189.88889h-76.73334l0.33334,-28.73333v28.73333z" fill="none" stroke="#161616"/></g><g stroke-width="3"><g><path d="M190.66668,190.38889v-30.33333h78v30.33333z" fill="#454545" stroke="#cbcbcb"/><path d="M268.66667,190.38889v-28.73333l0.33334,28.73333h-76.73334z" fill="none" stroke="#161616"/></g><path d="M267.00001,190.38889h-76.73334l0.33334,-28.73333v28.73333z" data-paper-data="{&quot;index&quot;:null}" fill="none" stroke="#161616"/></g><g stroke-width="3"><g><path d="M279.16668,190.38889v-30.33333h78v30.33333z" fill="#454545" stroke="#cbcbcb"/><path d="M357.16667,190.38889v-28.73333l0.33334,28.73333h-76.73334z" fill="none" stroke="#161616"/></g><path d="M355.50001,190.38889h-76.73334l0.33334,-28.73333v28.73333z" data-paper-data="{&quot;index&quot;:null}" fill="none" stroke="#161616"/></g><g stroke-width="3"><g><path d="M368.66668,190.88889v-30.33333h78v30.33333z" fill="#454545" stroke="#cbcbcb"/><path d="M446.66667,190.88889v-28.73333l0.33334,28.73333h-76.73334z" fill="none" stroke="#161616"/></g><path d="M445.00001,190.88889h-76.73334l0.33334,-28.73333v28.73333z" data-paper-data="{&quot;index&quot;:null}" fill="none" stroke="#161616"/></g></g></g></svg>