<svg version="1.1" xmlns="http://www.w3.org/2000/svg" xmlns:xlink="http://www.w3.org/1999/xlink" width="61" height="61" viewBox="0,0,61,61"><g transform="translate(-289.5,-149.5)"><g data-paper-data="{&quot;isPaintingLayer&quot;:true}" fill-rule="nonzero" stroke-linecap="butt" stroke-linejoin="miter" stroke-miterlimit="10" stroke-dasharray="" stroke-dashoffset="0" style="mix-blend-mode: normal"><path d="M291.5,180c0,-15.74012 12.75988,-28.5 28.5,-28.5c15.74012,0 28.5,12.75988 28.5,28.5c0,15.74012 -12.75988,28.5 -28.5,28.5c-15.74012,0 -28.5,-12.75988 -28.5,-28.5z" fill="#ffffff" stroke="#000000" stroke-width="4"/><path d="M299,185.45v-9.675c0,0 6.54329,0 9.976,0c3.66181,0 11.524,-6.525 11.524,-6.525l-0.172,22.5c0,0 -7.69019,-6.3 -11.352,-6.3c-3.43271,0 -9.976,0 -9.976,0z" fill="#000000" stroke="#000000" stroke-width="4"/><path d="M324.125,200.16667c0,-2.5 2.5,-2.5 2.5,-2.5l1.03163,0.10543c5.52147,-1.58303 4.98267,-4.45538 5.22094,-9.46872c0.24731,-5.20373 0.51315,-10.1794 0.00959,-15.39037c-0.39995,-4.13891 -1.77794,-8.91077 -6.51216,-8.74635c0,0 -2.5,0 -2.5,-2.5c0,-2.5 2.5,-2.5 2.5,-2.5c14.08069,0.3063 11.96244,19.61893 11.49743,29.36329c-0.14273,2.99089 0.4154,5.6787 -1.01566,8.5133c-1.66161,3.29124 -4.47555,4.49854 -7.7634,5.51798l-2.46837,0.10543c0,0 -2.5,0 -2.5,-2.5z" fill="#000000" stroke="none" stroke-width="0.5"/><path d="M327.375,189.41666c-2.5,0 -2.5,-2.5 -2.5,-2.5v-0.75c0.00438,-3.35417 -0.49603,-6.64372 -0.5,-10c0,0 0,-2.5 2.5,-2.5c2.5,0 2.5,2.5 2.5,2.5c-0.00438,3.35417 0.49603,6.64372 0.5,10v0.75c0,0 0,2.5 -2.5,2.5z" fill="#000000" stroke="none" stroke-width="0.5"/></g></g></svg>