<svg version="1.1" xmlns="http://www.w3.org/2000/svg" xmlns:xlink="http://www.w3.org/1999/xlink" width="24.66667" height="24.66667" viewBox="0,0,24.66667,24.66667"><g transform="translate(-307.66667,-167.66667)"><g data-paper-data="{&quot;isPaintingLayer&quot;:true}" fill-rule="nonzero" stroke="none" stroke-linecap="butt" stroke-linejoin="miter" stroke-miterlimit="10" stroke-dasharray="" stroke-dashoffset="0" style="mix-blend-mode: normal"><path d="M307.66667,192.33333v-24.66667h24.66667v24.66667z" fill="#ffffff" stroke-width="0"/><path d="M320,168.297c6.627,0 12,5.373 12,12c0,5.295 -3.435,9.795 -8.236,11.369c-0.615,0.12 -0.825,-0.255 -0.825,-0.57c0,-0.39 0.015,-1.68 0.015,-3.286c0,-1.124 -0.39,-1.86 -0.81,-2.22c2.67,-0.295 5.475,-1.31 5.475,-5.92c0,-1.31 -0.465,-2.38 -1.23,-3.22c0.12,-0.303 0.525,-1.523 -0.12,-3.176c0,0 -1.005,-0.322 -3.285,1.23c-0.96,-0.267 -1.98,-0.399 -3,-0.405c-1.02,0.006 -2.04,0.138 -3,0.405c-2.295,-1.552 -3.3,-1.23 -3.3,-1.23c-0.645,1.653 -0.24,2.873 -0.105,3.176c-0.77,0.84 -1.235,1.91 -1.235,3.22c0,4.598 2.801,5.63 5.466,5.93c-0.343,0.3 -0.652,0.829 -0.76,1.605c-0.686,0.307 -2.425,0.837 -3.495,-0.998c0,0 -0.633,-1.152 -1.838,-1.236c0,0 -1.171,-0.015 -0.084,0.729c0,0 0.789,0.37 1.335,1.755c0,0 0.704,2.334 4.042,1.61c0.005,1 0.015,1.755 0.015,2.04c0,0.319 -0.22,0.69 -0.82,0.577c-4.767,-1.585 -8.205,-6.082 -8.205,-11.385c0,-6.627 5.37,-12 12,-12" fill="#000000" stroke-width="1"/></g></g></svg>